<?xml version="1.0" encoding="UTF-8" standalone="no"?>
<svg
   width="340.16pt"
   height="171.00418pt"
   viewBox="0 0 340.16 171.00418"
   version="1.1"
   id="svg88"
   sodipodi:docname="plot-forecast.svg"
   inkscape:version="1.4.2 (1:1.4.2+202505120737+ebf0e940d0)"
   xmlns:inkscape="http://www.inkscape.org/namespaces/inkscape"
   xmlns:sodipodi="http://sodipodi.sourceforge.net/DTD/sodipodi-0.dtd"
   xmlns="http://www.w3.org/2000/svg"
   xmlns:svg="http://www.w3.org/2000/svg">
  <defs
     id="defs88" />
  <sodipodi:namedview
     id="namedview88"
     pagecolor="#ffffff"
     bordercolor="#000000"
     borderopacity="0.25"
     inkscape:showpageshadow="2"
     inkscape:pageopacity="0.0"
     inkscape:pagecheckerboard="0"
     inkscape:deskcolor="#d1d1d1"
     inkscape:document-units="pt"
     inkscape:zoom="1.312373"
     inkscape:cx="136.77514"
     inkscape:cy="152.01471"
     inkscape:window-width="1920"
     inkscape:window-height="1052"
     inkscape:window-x="0"
     inkscape:window-y="0"
     inkscape:window-maximized="1"
     inkscape:current-layer="g88" />
  <g
     class="svglite"
     id="g88">
    <defs
       id="defs1">
      <style
         type="text/css"
         id="style1"><![CDATA[
    .svglite line, .svglite polyline, .svglite polygon, .svglite path, .svglite rect, .svglite circle {
      fill: none;
      stroke: #000000;
      stroke-linecap: round;
      stroke-linejoin: round;
      stroke-miterlimit: 10.00;
    }
    .svglite text {
      white-space: pre;
    }
    .svglite g.glyphgroup path {
      fill: inherit;
      stroke: none;
    }
  ]]></style>
    </defs>
    <defs
       id="defs2">
      <clipPath
         id="cpMC4wMHwzNDAuMTZ8MC4wMHwyMjYuNzc=">
        <rect
           x="0"
           y="0"
           width="340.16"
           height="226.77"
           id="rect2" />
      </clipPath>
    </defs>
    <g
       clip-path="url(#cpMC4wMHwzNDAuMTZ8MC4wMHwyMjYuNzc=)"
       id="g3">
      <rect
         x="0"
         y="0"
         width="340.16"
         height="171.00418"
         style="fill:#ffffff;stroke:none;stroke-width:0.929168"
         id="rect3" />
    </g>
    <defs
       id="defs4">
      <clipPath
         id="cpNDIuNTZ8MzM0LjY4fDUuNDh8MjA4LjQ4">
        <rect
           x="42.560001"
           y="5.48"
           width="292.12"
           height="203"
           id="rect4" />
      </clipPath>
    </defs>
    <g
       clip-path="url(#cpNDIuNTZ8MzM0LjY4fDUuNDh8MjA4LjQ4)"
       id="g60">
      <rect
         x="42.560001"
         y="5.48"
         width="292.12"
         height="50.75"
         style="fill:#ffffff;stroke-width:1.07"
         id="rect5" />
      <polyline
         points="42.56,49.81 917.17,49.81 "
         style="stroke:#ebebeb;stroke-width:0.53;stroke-linecap:butt"
         id="polyline5" />
      <polyline
         points="42.56,36.97 917.17,36.97 "
         style="stroke:#ebebeb;stroke-width:0.53;stroke-linecap:butt"
         id="polyline6" />
      <polyline
         points="42.56,24.13 917.17,24.13 "
         style="stroke:#ebebeb;stroke-width:0.53;stroke-linecap:butt"
         id="polyline7" />
      <polyline
         points="42.56,11.29 917.17,11.29 "
         style="stroke:#ebebeb;stroke-width:0.53;stroke-linecap:butt"
         id="polyline8" />
      <polyline
         points="42.56,56.23 42.56,5.48 "
         style="stroke:#ebebeb;stroke-width:0.53;stroke-linecap:butt"
         id="polyline9" />
      <polyline
         points="126.02,56.23 126.02,5.48 "
         style="stroke:#ebebeb;stroke-width:0.53;stroke-linecap:butt"
         id="polyline10" />
      <polyline
         points="209.49,56.23 209.49,5.48 "
         style="stroke:#ebebeb;stroke-width:0.53;stroke-linecap:butt"
         id="polyline11" />
      <polyline
         points="292.95,56.23 292.95,5.48 "
         style="stroke:#ebebeb;stroke-width:0.53;stroke-linecap:butt"
         id="polyline12" />
      <polyline
         points="42.56,43.39 917.17,43.39 "
         style="stroke:#ebebeb;stroke-width:1.07;stroke-linecap:butt"
         id="polyline13" />
      <polyline
         points="42.56,30.55 917.17,30.55 "
         style="stroke:#ebebeb;stroke-width:1.07;stroke-linecap:butt"
         id="polyline14" />
      <polyline
         points="42.56,17.71 917.17,17.71 "
         style="stroke:#ebebeb;stroke-width:1.07;stroke-linecap:butt"
         id="polyline15" />
      <polyline
         points="84.29,56.23 84.29,5.48 "
         style="stroke:#ebebeb;stroke-width:1.07;stroke-linecap:butt"
         id="polyline16" />
      <polyline
         points="167.76,56.23 167.76,5.48 "
         style="stroke:#ebebeb;stroke-width:1.07;stroke-linecap:butt"
         id="polyline17" />
      <polyline
         points="251.22,56.23 251.22,5.48 "
         style="stroke:#ebebeb;stroke-width:1.07;stroke-linecap:butt"
         id="polyline18" />
      <rect
         x="42.560001"
         y="56.23"
         width="292.12"
         height="50.75"
         style="fill:#ffffff;stroke-width:1.07"
         id="rect18" />
      <polyline
         points="42.56,100.56 917.17,100.56 "
         style="stroke:#ebebeb;stroke-width:0.53;stroke-linecap:butt"
         id="polyline19" />
      <polyline
         points="42.56,87.72 917.17,87.72 "
         style="stroke:#ebebeb;stroke-width:0.53;stroke-linecap:butt"
         id="polyline20" />
      <polyline
         points="42.56,74.88 917.17,74.88 "
         style="stroke:#ebebeb;stroke-width:0.53;stroke-linecap:butt"
         id="polyline21" />
      <polyline
         points="42.56,62.04 917.17,62.04 "
         style="stroke:#ebebeb;stroke-width:0.53;stroke-linecap:butt"
         id="polyline22" />
      <polyline
         points="42.56,106.98 42.56,56.23 "
         style="stroke:#ebebeb;stroke-width:0.53;stroke-linecap:butt"
         id="polyline23" />
      <polyline
         points="126.02,106.98 126.02,56.23 "
         style="stroke:#ebebeb;stroke-width:0.53;stroke-linecap:butt"
         id="polyline24" />
      <polyline
         points="209.49,106.98 209.49,56.23 "
         style="stroke:#ebebeb;stroke-width:0.53;stroke-linecap:butt"
         id="polyline25" />
      <polyline
         points="292.95,106.98 292.95,56.23 "
         style="stroke:#ebebeb;stroke-width:0.53;stroke-linecap:butt"
         id="polyline26" />
      <polyline
         points="42.56,94.14 917.17,94.14 "
         style="stroke:#ebebeb;stroke-width:1.07;stroke-linecap:butt"
         id="polyline27" />
      <polyline
         points="42.56,81.30 917.17,81.30 "
         style="stroke:#ebebeb;stroke-width:1.07;stroke-linecap:butt"
         id="polyline28" />
      <polyline
         points="42.56,68.46 917.17,68.46 "
         style="stroke:#ebebeb;stroke-width:1.07;stroke-linecap:butt"
         id="polyline29" />
      <polyline
         points="84.29,106.98 84.29,56.23 "
         style="stroke:#ebebeb;stroke-width:1.07;stroke-linecap:butt"
         id="polyline30" />
      <polyline
         points="167.76,106.98 167.76,56.23 "
         style="stroke:#ebebeb;stroke-width:1.07;stroke-linecap:butt"
         id="polyline31" />
      <polyline
         points="251.22,106.98 251.22,56.23 "
         style="stroke:#ebebeb;stroke-width:1.07;stroke-linecap:butt"
         id="polyline32" />
      <rect
         x="42.560001"
         y="106.98"
         width="292.12"
         height="50.75"
         style="fill:#ffffff;stroke-width:1.07"
         id="rect32" />
      <polyline
         points="42.56,151.31 917.17,151.31 "
         style="stroke:#ebebeb;stroke-width:0.53;stroke-linecap:butt"
         id="polyline33" />
      <polyline
         points="42.56,138.47 917.17,138.47 "
         style="stroke:#ebebeb;stroke-width:0.53;stroke-linecap:butt"
         id="polyline34" />
      <polyline
         points="42.56,125.63 917.17,125.63 "
         style="stroke:#ebebeb;stroke-width:0.53;stroke-linecap:butt"
         id="polyline35" />
      <polyline
         points="42.56,112.79 917.17,112.79 "
         style="stroke:#ebebeb;stroke-width:0.53;stroke-linecap:butt"
         id="polyline36" />
      <polyline
         points="42.56,157.73 42.56,106.98 "
         style="stroke:#ebebeb;stroke-width:0.53;stroke-linecap:butt"
         id="polyline37" />
      <polyline
         points="126.02,157.73 126.02,106.98 "
         style="stroke:#ebebeb;stroke-width:0.53;stroke-linecap:butt"
         id="polyline38" />
      <polyline
         points="209.49,157.73 209.49,106.98 "
         style="stroke:#ebebeb;stroke-width:0.53;stroke-linecap:butt"
         id="polyline39" />
      <polyline
         points="292.95,157.73 292.95,106.98 "
         style="stroke:#ebebeb;stroke-width:0.53;stroke-linecap:butt"
         id="polyline40" />
      <polyline
         points="42.56,144.89 917.17,144.89 "
         style="stroke:#ebebeb;stroke-width:1.07;stroke-linecap:butt"
         id="polyline41" />
      <polyline
         points="42.56,132.05 917.17,132.05 "
         style="stroke:#ebebeb;stroke-width:1.07;stroke-linecap:butt"
         id="polyline42" />
      <polyline
         points="42.56,119.21 917.17,119.21 "
         style="stroke:#ebebeb;stroke-width:1.07;stroke-linecap:butt"
         id="polyline43" />
      <polyline
         points="84.29,157.73 84.29,106.98 "
         style="stroke:#ebebeb;stroke-width:1.07;stroke-linecap:butt"
         id="polyline44" />
      <polyline
         points="167.76,157.73 167.76,106.98 "
         style="stroke:#ebebeb;stroke-width:1.07;stroke-linecap:butt"
         id="polyline45" />
      <polyline
         points="251.22,157.73 251.22,106.98 "
         style="stroke:#ebebeb;stroke-width:1.07;stroke-linecap:butt"
         id="polyline46" />
    </g>
    <defs
       id="defs60">
      <clipPath
         id="cp-0">
        <path
           d="M 42.56,56.23 V 5.48 h 292.12 v 50.75 z"
           id="path60" />
      </clipPath>
    </defs>
    <g
       clip-path="url(#cp-0)"
       id="g62">
      <polygon
         points="505.08,56.12 506.82,56.15 508.56,56.12 510.3,55.28 512.03,49.5 513.77,31.72 515.51,6.94 517.25,30.73 518.99,46.99 520.73,47.48 522.47,37.78 524.21,37.87 525.94,45.66 527.68,42.79 529.42,27.22 531.16,13.77 532.9,37.93 534.64,50.52 536.38,53.01 538.12,53.93 539.85,54.53 541.59,55.3 543.33,55.4 545.07,55.79 546.81,55.93 548.55,55.98 550.29,56.04 552.03,56.02 553.76,55.71 555.5,55.16 557.24,54.69 558.98,54.15 560.72,53.83 562.46,53.8 564.2,53.84 565.94,53.69 567.67,53.35 569.41,53.2 571.15,53.47 572.89,52.95 574.63,52.41 576.37,53.72 578.11,54.39 579.85,54.48 581.59,54.56 583.32,54.8 585.06,55.4 586.8,55.79 588.54,55.93 590.28,55.98 592.02,56.04 593.76,56.02 595.5,55.71 597.23,55.15 598.97,54.68 600.71,54.14 602.45,53.82 604.19,53.79 605.93,53.83 607.67,53.68 609.41,53.34 611.14,53.19 612.88,53.46 614.62,52.93 616.36,52.4 618.1,53.71 619.84,54.38 621.58,54.47 623.32,54.56 625.05,54.79 626.79,55.85 628.53,56.07 630.27,56.12 632.01,56.15 633.75,56.11 635.49,55.27 637.23,49.41 638.96,31.41 640.7,6.32 642.44,30.41 644.18,46.87 645.92,47.37 647.66,37.54 649.4,37.64 651.14,45.52 652.88,42.62 654.61,26.85 656.35,13.23 658.09,37.7 659.83,50.44 661.57,52.97 663.31,53.9 665.05,54.51 666.79,55.29 668.52,55.85 670.26,56.06 672,56.11 673.74,56.15 675.48,56.11 677.22,55.27 678.96,49.39 680.7,31.31 682.43,6.11 684.17,30.3 685.91,46.83 687.65,47.33 689.39,37.47 691.13,37.56 692.87,45.48 694.61,42.56 696.34,26.73 698.08,13.05 699.82,37.62 701.56,50.42 703.3,52.95 705.04,53.89 706.78,54.5 708.52,55.28 710.26,55.85 711.99,56.06 713.73,56.11 715.47,56.15 717.21,56.11 718.95,55.26 720.69,49.36 722.43,31.2 724.17,5.9 725.9,30.2 727.64,46.8 729.38,47.3 731.12,37.39 732.86,37.48 734.6,45.43 736.34,42.51 738.08,26.61 739.81,12.87 741.55,37.54 743.29,50.4 745.03,52.94 746.77,53.88 748.51,54.49 750.25,55.28 751.99,55.85 753.72,56.06 755.46,56.11 757.2,56.15 758.94,56.11 760.68,55.26 762.42,49.33 764.16,31.1 765.9,5.69 767.63,30.09 769.37,46.76 771.11,47.26 772.85,37.31 774.59,37.4 776.33,45.39 778.07,42.45 779.81,26.49 781.55,12.69 783.28,37.46 785.02,50.37 786.76,52.93 788.5,53.87 790.24,54.49 791.98,55.28 793.72,55.84 795.46,56.06 797.19,56.11 798.93,56.15 800.67,56.11 802.41,55.26 804.15,49.3 805.89,30.99 807.63,5.48 809.37,29.98 811.1,46.72 812.84,47.22 814.58,37.23 816.32,37.32 818.06,45.34 819.8,42.39 821.54,26.36 823.28,12.51 825.01,37.39 826.75,50.35 828.49,52.91 830.23,53.86 831.97,54.48 833.71,55.27 835.45,55.38 837.19,55.78 838.92,55.92 840.66,55.97 842.4,56.04 844.14,56.01 845.88,55.7 847.62,55.12 849.36,54.64 851.1,54.09 852.84,53.76 854.57,53.73 856.31,53.77 858.05,53.61 859.79,53.26 861.53,53.11 863.27,53.39 865.01,52.85 866.75,52.3 868.48,53.65 870.22,54.33 871.96,54.43 873.7,54.51 875.44,54.76 877.18,55.38 878.92,55.78 880.66,55.92 882.39,55.97 884.13,56.04 885.87,56.01 887.61,55.69 889.35,55.12 891.09,54.64 892.83,54.08 894.57,53.75 896.3,53.72 898.04,53.76 899.78,53.6 901.52,53.25 903.26,53.1 905,53.38 906.74,52.84 908.48,52.28 910.21,53.64 911.95,54.32 913.69,54.42 915.43,54.51 917.17,54.75 917.17,56.08 915.43,56.05 913.69,56.04 911.95,56.03 910.21,55.96 908.48,55.81 906.74,55.87 905,55.93 903.26,55.9 901.52,55.91 899.78,55.95 898.04,55.97 896.3,55.96 894.57,55.97 892.83,56 891.09,56.06 889.35,56.12 887.61,56.18 885.87,56.21 884.13,56.22 882.39,56.21 880.66,56.2 878.92,56.19 877.18,56.14 875.44,56.08 873.7,56.05 871.96,56.04 870.22,56.03 868.48,55.96 866.75,55.81 865.01,55.87 863.27,55.93 861.53,55.9 859.79,55.91 858.05,55.95 856.31,55.97 854.57,55.96 852.84,55.97 851.1,56 849.36,56.06 847.62,56.12 845.88,56.18 844.14,56.21 842.4,56.22 840.66,56.21 838.92,56.2 837.19,56.19 835.45,56.14 833.71,56.13 831.97,56.04 830.23,55.97 828.49,55.87 826.75,55.58 825.01,54.14 823.28,51.36 821.54,52.91 819.8,54.69 818.06,55.02 816.32,54.13 814.58,54.12 812.84,55.23 811.1,55.18 809.37,53.31 807.63,50.58 805.89,53.42 804.15,55.46 802.41,56.13 800.67,56.22 798.93,56.23 797.19,56.22 795.46,56.22 793.72,56.19 791.98,56.13 790.24,56.04 788.5,55.97 786.76,55.87 785.02,55.58 783.28,54.14 781.55,51.38 779.81,52.92 778.07,54.7 776.33,55.03 774.59,54.14 772.85,54.13 771.11,55.24 769.37,55.18 767.63,53.32 765.9,50.6 764.16,53.43 762.42,55.47 760.68,56.13 758.94,56.22 757.2,56.23 755.46,56.22 753.72,56.22 751.99,56.19 750.25,56.13 748.51,56.04 746.77,55.98 745.03,55.87 743.29,55.59 741.55,54.15 739.81,51.4 738.08,52.93 736.34,54.71 734.6,55.03 732.86,54.15 731.12,54.14 729.38,55.24 727.64,55.19 725.9,53.33 724.17,50.62 722.43,53.45 720.69,55.47 718.95,56.13 717.21,56.22 715.47,56.23 713.73,56.22 711.99,56.22 710.26,56.19 708.52,56.13 706.78,56.04 705.04,55.98 703.3,55.87 701.56,55.59 699.82,54.16 698.08,51.42 696.34,52.95 694.61,54.71 692.87,55.04 691.13,54.15 689.39,54.14 687.65,55.25 685.91,55.19 684.17,53.35 682.43,50.65 680.7,53.46 678.96,55.47 677.22,56.13 675.48,56.22 673.74,56.23 672,56.22 670.26,56.22 668.52,56.19 666.79,56.13 665.05,56.05 663.31,55.98 661.57,55.87 659.83,55.59 658.09,54.17 656.35,51.44 654.61,52.96 652.88,54.72 651.14,55.04 649.4,54.16 647.66,54.15 645.92,55.25 644.18,55.19 642.44,53.36 640.7,50.67 638.96,53.47 637.23,55.48 635.49,56.13 633.75,56.22 632.01,56.23 630.27,56.22 628.53,56.22 626.79,56.2 625.05,56.08 623.32,56.06 621.58,56.05 619.84,56.04 618.1,55.96 616.36,55.82 614.62,55.88 612.88,55.94 611.14,55.91 609.41,55.92 607.67,55.96 605.93,55.98 604.19,55.97 602.45,55.97 600.71,56.01 598.97,56.07 597.23,56.12 595.5,56.18 593.76,56.21 592.02,56.22 590.28,56.21 588.54,56.2 586.8,56.19 585.06,56.15 583.32,56.08 581.59,56.06 579.85,56.05 578.11,56.04 576.37,55.96 574.63,55.82 572.89,55.88 571.15,55.94 569.41,55.91 567.67,55.92 565.94,55.96 564.2,55.98 562.46,55.97 560.72,55.98 558.98,56.01 557.24,56.07 555.5,56.12 553.76,56.18 552.03,56.21 550.29,56.22 548.55,56.21 546.81,56.21 545.07,56.19 543.33,56.15 541.59,56.13 539.85,56.05 538.12,55.98 536.38,55.88 534.64,55.6 532.9,54.19 531.16,51.5 529.42,53 527.68,54.74 525.94,55.06 524.21,54.19 522.47,54.18 520.73,55.26 518.99,55.21 517.25,53.39 515.51,50.74 513.77,53.5 512.03,55.49 510.3,56.13 508.56,56.22 506.82,56.23 505.08,56.22 503.34,56.22 501.6,56.2 501.6,55.86 503.34,56.07 "
         style="fill:#d3d1ff;stroke:none;stroke-width:0;stroke-linecap:butt"
         id="polygon60" />
      <polygon
         points="505.08,56.16 506.82,56.18 508.56,56.15 510.3,55.59 512.03,51.63 513.77,39.46 515.51,22.51 517.25,38.79 518.99,49.91 520.73,50.25 522.47,43.61 524.21,43.67 525.94,49 527.68,47.04 529.42,36.38 531.16,27.18 532.9,43.71 534.64,52.32 536.38,54.03 538.12,54.66 539.85,55.07 541.59,55.6 543.33,55.67 545.07,55.94 546.81,56.03 548.55,56.06 550.29,56.1 552.03,56.09 553.76,55.88 555.5,55.5 557.24,55.18 558.98,54.82 560.72,54.6 562.46,54.58 564.2,54.6 565.94,54.5 567.67,54.27 569.41,54.17 571.15,54.35 572.89,54 574.63,53.63 576.37,54.53 578.11,54.98 579.85,55.04 581.59,55.1 583.32,55.26 585.06,55.67 586.8,55.93 588.54,56.03 590.28,56.06 592.02,56.1 593.76,56.09 595.5,55.88 597.23,55.5 598.97,55.18 600.71,54.81 602.45,54.59 604.19,54.57 605.93,54.6 607.67,54.49 609.41,54.26 611.14,54.16 612.88,54.35 614.62,53.99 616.36,53.62 618.1,54.52 619.84,54.97 621.58,55.04 623.32,55.09 625.05,55.25 626.79,55.97 628.53,56.12 630.27,56.15 632.01,56.18 633.75,56.15 635.49,55.58 637.23,51.57 638.96,39.25 640.7,22.08 642.44,38.57 644.18,49.83 645.92,50.17 647.66,43.45 649.4,43.51 651.14,48.91 652.88,46.92 654.61,36.14 656.35,26.82 658.09,43.55 659.83,52.27 661.57,54 663.31,54.64 665.05,55.05 666.79,55.59 668.52,55.97 670.26,56.12 672,56.15 673.74,56.18 675.48,56.15 677.22,55.57 678.96,51.55 680.7,39.18 682.43,21.94 684.17,38.5 685.91,49.8 687.65,50.15 689.39,43.4 691.13,43.46 692.87,48.88 694.61,46.88 696.34,36.05 698.08,26.69 699.82,43.5 701.56,52.26 703.3,53.99 705.04,54.63 706.78,55.05 708.52,55.59 710.26,55.97 711.99,56.12 713.73,56.15 715.47,56.18 717.21,56.15 718.95,55.57 720.69,51.53 722.43,39.11 724.17,21.8 725.9,38.42 727.64,49.78 729.38,50.12 731.12,43.34 732.86,43.41 734.6,48.85 736.34,46.84 738.08,35.97 739.81,26.57 741.55,43.45 743.29,52.24 745.03,53.98 746.77,54.62 748.51,55.04 750.25,55.58 751.99,55.97 753.72,56.12 755.46,56.15 757.2,56.18 758.94,56.15 760.68,55.57 762.42,51.51 764.16,39.04 765.9,21.66 767.63,38.35 769.37,49.75 771.11,50.1 772.85,43.29 774.59,43.35 776.33,48.82 778.07,46.81 779.81,35.88 781.55,26.45 783.28,43.39 785.02,52.23 786.76,53.97 788.5,54.62 790.24,55.04 791.98,55.58 793.72,55.97 795.46,56.12 797.19,56.15 798.93,56.18 800.67,56.15 802.41,55.57 804.15,51.49 805.89,38.97 807.63,21.51 809.37,38.27 811.1,49.72 812.84,50.07 814.58,43.23 816.32,43.3 818.06,48.79 819.8,46.77 821.54,35.8 823.28,26.32 825.01,43.34 826.75,52.21 828.49,53.96 830.23,54.61 831.97,55.03 833.71,55.58 835.45,55.65 837.19,55.93 838.92,56.02 840.66,56.06 842.4,56.1 844.14,56.09 845.88,55.87 847.62,55.48 849.36,55.15 851.1,54.77 852.84,54.55 854.57,54.53 856.31,54.56 858.05,54.45 859.79,54.21 861.53,54.11 863.27,54.3 865.01,53.93 866.75,53.56 868.48,54.48 870.22,54.94 871.96,55.01 873.7,55.06 875.44,55.23 877.18,55.65 878.92,55.93 880.66,56.02 882.39,56.06 884.13,56.1 885.87,56.08 887.61,55.87 889.35,55.48 891.09,55.15 892.83,54.77 894.57,54.54 896.3,54.52 898.04,54.55 899.78,54.44 901.52,54.2 903.26,54.1 905,54.29 906.74,53.92 908.48,53.54 910.21,54.47 911.95,54.93 913.69,55 915.43,55.06 917.17,55.23 917.17,56 915.43,55.96 913.69,55.95 911.95,55.93 910.21,55.82 908.48,55.61 906.74,55.69 905,55.78 903.26,55.74 901.52,55.76 899.78,55.82 898.04,55.84 896.3,55.84 894.57,55.84 892.83,55.89 891.09,55.98 889.35,56.06 887.61,56.15 885.87,56.2 884.13,56.21 882.39,56.2 880.66,56.19 878.92,56.16 877.18,56.1 875.44,56 873.7,55.96 871.96,55.95 870.22,55.93 868.48,55.82 866.75,55.61 865.01,55.7 863.27,55.78 861.53,55.74 859.79,55.76 858.05,55.82 856.31,55.84 854.57,55.84 852.84,55.84 851.1,55.89 849.36,55.98 847.62,56.06 845.88,56.15 844.14,56.2 842.4,56.21 840.66,56.2 838.92,56.19 837.19,56.17 835.45,56.1 833.71,56.08 831.97,55.95 830.23,55.85 828.49,55.7 826.75,55.28 825.01,53.16 823.28,49.11 821.54,51.37 819.8,53.98 818.06,54.46 816.32,53.15 814.58,53.14 812.84,54.77 811.1,54.69 809.37,51.96 807.63,47.96 805.89,52.12 804.15,55.11 802.41,56.08 800.67,56.22 798.93,56.22 797.19,56.22 795.46,56.21 793.72,56.17 791.98,56.08 790.24,55.95 788.5,55.85 786.76,55.7 785.02,55.28 783.28,53.18 781.55,49.14 779.81,51.39 778.07,53.99 776.33,54.47 774.59,53.17 772.85,53.15 771.11,54.77 769.37,54.69 767.63,51.97 765.9,48 764.16,52.14 762.42,55.11 760.68,56.08 758.94,56.22 757.2,56.22 755.46,56.22 753.72,56.21 751.99,56.17 750.25,56.08 748.51,55.95 746.77,55.85 745.03,55.7 743.29,55.29 741.55,53.19 739.81,49.17 738.08,51.41 736.34,54 734.6,54.48 732.86,53.18 731.12,53.16 729.38,54.78 727.64,54.7 725.9,51.99 724.17,48.03 722.43,52.16 720.69,55.12 718.95,56.08 717.21,56.22 715.47,56.22 713.73,56.22 711.99,56.21 710.26,56.17 708.52,56.08 706.78,55.95 705.04,55.86 703.3,55.7 701.56,55.29 699.82,53.2 698.08,49.2 696.34,51.43 694.61,54.01 692.87,54.48 691.13,53.19 689.39,53.18 687.65,54.79 685.91,54.71 684.17,52.01 682.43,48.06 680.7,52.17 678.96,55.12 677.22,56.08 675.48,56.22 673.74,56.22 672,56.22 670.26,56.21 668.52,56.17 666.79,56.08 665.05,55.96 663.31,55.86 661.57,55.7 659.83,55.29 658.09,53.21 656.35,49.23 654.61,51.45 652.88,54.02 651.14,54.49 649.4,53.2 647.66,53.19 645.92,54.79 644.18,54.71 642.44,52.03 640.7,48.1 638.96,52.19 637.23,55.13 635.49,56.08 633.75,56.22 632.01,56.22 630.27,56.22 628.53,56.21 626.79,56.18 625.05,56.01 623.32,55.97 621.58,55.96 619.84,55.94 618.1,55.83 616.36,55.62 614.62,55.71 612.88,55.79 611.14,55.75 609.41,55.77 607.67,55.83 605.93,55.85 604.19,55.85 602.45,55.85 600.71,55.9 598.97,55.99 597.23,56.06 595.5,56.15 593.76,56.2 592.02,56.21 590.28,56.2 588.54,56.19 586.8,56.17 585.06,56.1 583.32,56.01 581.59,55.97 579.85,55.96 578.11,55.94 576.37,55.84 574.63,55.63 572.89,55.71 571.15,55.8 569.41,55.75 567.67,55.78 565.94,55.83 564.2,55.85 562.46,55.85 560.72,55.85 558.98,55.9 557.24,55.99 555.5,56.07 553.76,56.15 552.03,56.2 550.29,56.21 548.55,56.2 546.81,56.19 545.07,56.17 543.33,56.11 541.59,56.09 539.85,55.96 538.12,55.86 536.38,55.71 534.64,55.31 532.9,53.25 531.16,49.31 529.42,51.51 527.68,54.04 525.94,54.51 524.21,53.24 522.47,53.23 520.73,54.81 518.99,54.73 517.25,52.08 515.51,48.2 513.77,52.24 512.03,55.14 510.3,56.08 508.56,56.22 506.82,56.22 505.08,56.22 503.34,56.21 501.6,56.18 501.6,55.98 503.34,56.12 "
         style="fill:#8f97fe;stroke:none;stroke-width:0;stroke-linecap:butt"
         id="polygon61" />
      <polyline
         points="501.60,56.09 503.34,56.17 505.08,56.19 506.82,56.21 508.56,56.19 510.30,55.87 512.03,53.63 513.77,46.77 515.51,37.19 517.25,46.38 518.99,52.67 520.73,52.86 522.47,49.11 524.21,49.14 525.94,52.15 527.68,51.04 529.42,45.03 531.16,39.83 532.90,49.16 534.64,54.03 536.38,54.99 538.12,55.35 539.85,55.58 541.59,55.88 543.33,55.92 545.07,56.07 546.81,56.12 548.55,56.14 550.29,56.16 552.03,56.15 553.76,56.04 555.50,55.82 557.24,55.65 558.98,55.44 560.72,55.32 562.46,55.30 564.20,55.32 565.94,55.26 567.67,55.13 569.41,55.07 571.15,55.18 572.89,54.98 574.63,54.77 576.37,55.28 578.11,55.53 579.85,55.57 581.59,55.60 583.32,55.69 585.06,55.92 586.80,56.07 588.54,56.12 590.28,56.14 592.02,56.16 593.76,56.15 595.50,56.04 597.23,55.82 598.97,55.64 600.71,55.44 602.45,55.31 604.19,55.30 605.93,55.32 607.67,55.26 609.41,55.13 611.14,55.07 612.88,55.17 614.62,54.97 616.36,54.77 618.10,55.27 619.84,55.53 621.58,55.56 623.32,55.59 625.05,55.69 626.79,56.09 628.53,56.17 630.27,56.19 632.01,56.20 633.75,56.19 635.49,55.87 637.23,53.60 638.96,46.65 640.70,36.95 642.44,46.26 644.18,52.62 645.92,52.81 647.66,49.02 649.40,49.05 651.14,52.10 652.88,50.98 654.61,44.89 656.35,39.63 658.09,49.08 659.83,54.00 661.57,54.97 663.31,55.33 665.05,55.57 666.79,55.87 668.52,56.09 670.26,56.17 672.00,56.19 673.74,56.20 675.48,56.19 677.22,55.86 678.96,53.59 680.70,46.61 682.43,36.87 684.17,46.22 685.91,52.61 687.65,52.80 689.39,48.99 691.13,49.02 692.87,52.08 694.61,50.96 696.34,44.84 698.08,39.56 699.82,49.05 701.56,53.99 703.30,54.97 705.04,55.33 706.78,55.57 708.52,55.87 710.26,56.09 711.99,56.17 713.73,56.19 715.47,56.20 717.21,56.19 718.95,55.86 720.69,53.58 722.43,46.57 724.17,36.79 725.90,46.18 727.64,52.59 729.38,52.78 731.12,48.96 732.86,48.99 734.60,52.07 736.34,50.93 738.08,44.79 739.81,39.49 741.55,49.02 743.29,53.98 745.03,54.96 746.77,55.33 748.51,55.56 750.25,55.87 751.99,56.09 753.72,56.17 755.46,56.19 757.20,56.20 758.94,56.19 760.68,55.86 762.42,53.57 764.16,46.53 765.90,36.71 767.63,46.14 769.37,52.58 771.11,52.77 772.85,48.93 774.59,48.96 776.33,52.05 778.07,50.91 779.81,44.75 781.55,39.42 783.28,48.99 785.02,53.97 786.76,54.96 788.50,55.32 790.24,55.56 791.98,55.87 793.72,56.09 795.46,56.17 797.19,56.19 798.93,56.20 800.67,56.19 802.41,55.86 804.15,53.56 805.89,46.49 807.63,36.63 809.37,46.10 811.10,52.56 812.84,52.76 814.58,48.90 816.32,48.93 818.06,52.03 819.80,50.89 821.54,44.70 823.28,39.35 825.01,48.96 826.75,53.96 828.49,54.95 830.23,55.32 831.97,55.56 833.71,55.87 835.45,55.91 837.19,56.06 838.92,56.12 840.66,56.14 842.40,56.16 844.14,56.15 845.88,56.03 847.62,55.81 849.36,55.63 851.10,55.42 852.84,55.29 854.57,55.28 856.31,55.29 858.05,55.23 859.79,55.10 861.53,55.04 863.27,55.15 865.01,54.94 866.75,54.73 868.48,55.25 870.22,55.51 871.96,55.55 873.70,55.58 875.44,55.67 877.18,55.91 878.92,56.06 880.66,56.12 882.39,56.14 884.13,56.16 885.87,56.15 887.61,56.03 889.35,55.81 891.09,55.63 892.83,55.41 894.57,55.29 896.30,55.27 898.04,55.29 899.78,55.23 901.52,55.10 903.26,55.04 905.00,55.14 906.74,54.94 908.48,54.73 910.21,55.24 911.95,55.51 913.69,55.54 915.43,55.58 917.17,55.67 "
         style="stroke:#446ffc;stroke-width:1.07;stroke-linecap:butt"
         id="polyline61" />
      <polyline
         points="42.56,56.10 44.30,56.19 46.04,56.22 47.78,56.23 49.52,56.21 51.26,55.95 53.00,53.61 54.73,47.41 56.47,37.16 58.21,47.33 59.95,53.31 61.69,53.30 63.43,50.11 65.17,50.54 66.91,52.98 68.64,51.82 70.38,46.40 72.12,40.51 73.86,50.07 75.60,54.45 77.34,55.33 79.08,55.58 80.82,55.80 82.55,56.05 84.29,56.21 86.03,56.21 87.77,56.19 89.51,56.23 91.25,56.22 92.99,55.85 94.73,53.50 96.47,47.22 98.20,38.11 99.94,46.59 101.68,53.31 103.42,53.26 105.16,50.14 106.90,50.38 108.64,52.50 110.38,51.92 112.11,46.42 113.85,41.65 115.59,49.72 117.33,54.48 119.07,55.55 120.81,55.69 122.55,55.80 124.29,56.02 126.02,56.17 127.76,56.18 129.50,56.21 131.24,56.21 132.98,56.22 134.72,55.88 136.46,53.73 138.20,47.07 139.93,37.68 141.67,47.48 143.41,52.93 145.15,53.61 146.89,50.13 148.63,50.10 150.37,52.91 152.11,51.89 153.85,46.98 155.58,41.22 157.32,49.98 159.06,54.19 160.80,55.38 162.54,55.79 164.28,55.75 166.02,55.94 167.76,56.13 169.49,56.23 171.23,56.17 172.97,56.20 174.71,56.21 176.45,55.91 178.19,53.39 179.93,46.85 181.67,37.58 183.40,45.64 185.14,53.12 186.88,53.63 188.62,50.00 190.36,49.96 192.10,52.26 193.84,51.35 195.58,46.66 197.31,42.29 199.05,50.42 200.79,54.01 202.53,55.26 204.27,55.51 206.01,55.69 207.75,55.87 209.49,56.13 211.22,56.12 212.96,56.17 214.70,56.21 216.44,56.18 218.18,55.96 219.92,53.75 221.66,47.39 223.40,38.07 225.14,47.06 226.87,53.18 228.61,53.50 230.35,49.59 232.09,49.84 233.83,52.24 235.57,51.56 237.31,47.04 239.05,43.13 240.78,51.05 242.52,54.31 244.26,54.97 246.00,55.23 247.74,55.72 249.48,55.87 251.22,55.96 252.96,56.08 254.69,56.20 256.43,56.19 258.17,56.22 259.91,56.15 261.65,55.85 263.39,55.61 265.13,55.60 266.87,55.49 268.60,55.52 270.34,55.38 272.08,55.24 273.82,55.55 275.56,55.40 277.30,55.26 279.04,55.47 280.78,55.33 282.51,55.18 284.25,55.55 285.99,55.43 287.73,55.62 289.47,55.80 291.21,55.74 292.95,56.03 294.69,56.17 296.43,56.15 298.16,56.15 299.90,56.21 301.64,56.20 303.38,56.11 305.12,55.91 306.86,55.45 308.60,50.83 310.34,49.66 312.07,54.29 313.81,54.90 315.55,55.52 317.29,55.57 319.03,55.15 320.77,55.40 322.51,55.42 324.25,55.36 325.98,55.65 327.72,55.85 329.46,55.79 331.20,55.87 332.94,56.08 334.68,56.10 336.42,56.21 338.16,56.21 339.89,56.23 341.63,56.22 343.37,55.95 345.11,53.72 346.85,47.61 348.59,39.64 350.33,45.21 352.07,52.74 353.80,53.66 355.54,50.83 357.28,51.09 359.02,53.53 360.76,52.51 362.50,47.20 364.24,40.60 365.98,50.25 367.72,54.53 369.45,55.50 371.19,55.67 372.93,55.84 374.67,56.02 376.41,56.16 378.15,56.19 379.89,56.22 381.63,56.22 383.36,56.19 385.10,55.90 386.84,53.43 388.58,47.71 390.32,36.09 392.06,46.99 393.80,53.06 395.54,53.52 397.27,50.15 399.01,50.25 400.75,53.27 402.49,52.13 404.23,46.27 405.97,41.05 407.71,50.08 409.45,54.17 411.18,54.09 412.92,55.17 414.66,55.47 416.40,55.51 418.14,55.80 419.88,55.41 421.62,55.91 423.36,56.22 425.09,56.21 426.83,55.92 428.57,53.90 430.31,47.12 432.05,37.73 433.79,46.99 435.53,52.71 437.27,53.60 439.01,49.52 440.74,49.68 442.48,52.35 444.22,51.46 445.96,46.69 447.70,41.16 449.44,49.52 451.18,54.12 452.92,55.25 454.65,55.51 456.39,55.87 458.13,55.94 459.87,56.11 461.61,56.17 463.35,56.22 465.09,56.23 466.83,56.22 468.56,55.95 470.30,53.39 472.04,47.31 473.78,38.03 475.52,46.34 477.26,52.84 479.00,53.15 480.74,49.83 482.47,50.06 484.21,52.35 485.95,51.24 487.69,46.28 489.43,40.09 491.17,50.37 492.91,54.57 494.65,55.60 496.38,55.68 498.12,55.71 499.86,55.87 "
         style="stroke-width:1.07;stroke-linecap:butt"
         id="polyline62" />
    </g>
    <g
       clip-path="url(#cpNDIuNTZ8MzM0LjY4fDUuNDh8MjA4LjQ4)"
       id="g63" />
    <defs
       id="defs63">
      <clipPath
         id="cp-1">
        <path
           d="M 42.56,106.98 V 56.23 h 292.12 v 50.75 z"
           id="path63" />
      </clipPath>
    </defs>
    <g
       clip-path="url(#cp-1)"
       id="g65">
      <polygon
         points="212.96,106.87 214.7,106.9 216.44,106.87 218.18,106.03 219.92,100.25 221.66,82.47 223.4,57.68 225.14,81.48 226.87,97.74 228.61,98.23 230.35,88.53 232.09,88.62 233.83,96.41 235.57,93.54 237.31,77.97 239.05,64.51 240.78,88.68 242.52,101.27 244.26,103.76 246,104.68 247.74,105.28 249.48,106.05 251.22,106.15 252.96,106.54 254.69,106.68 256.43,106.73 258.17,106.79 259.91,106.77 261.65,106.46 263.39,105.91 265.13,105.44 266.87,104.9 268.6,104.58 270.34,104.55 272.08,104.59 273.82,104.44 275.56,104.1 277.3,103.95 279.04,104.22 280.78,103.7 282.51,103.16 284.25,104.47 285.99,105.14 287.73,105.23 289.47,105.31 291.21,105.55 292.95,106.15 294.69,106.54 296.43,106.68 298.16,106.73 299.9,106.79 301.64,106.77 303.38,106.46 305.12,105.9 306.86,105.43 308.6,104.89 310.34,104.57 312.07,104.54 313.81,104.58 315.55,104.43 317.29,104.09 319.03,103.94 320.77,104.21 322.51,103.68 324.25,103.15 325.98,104.46 327.72,105.13 329.46,105.22 331.2,105.3 332.94,105.54 334.68,106.6 336.42,106.81 338.16,106.86 339.89,106.9 341.63,106.86 343.37,106.02 345.11,100.16 346.85,82.16 348.59,57.07 350.33,81.16 352.07,97.62 353.8,98.12 355.54,88.29 357.28,88.38 359.02,96.27 360.76,93.37 362.5,77.6 364.24,63.98 365.98,88.45 367.72,101.19 369.45,103.72 371.19,104.65 372.93,105.26 374.67,106.04 376.41,106.6 378.15,106.81 379.89,106.86 381.63,106.9 383.36,106.86 385.1,106.02 386.84,100.14 388.58,82.06 390.32,56.86 392.06,81.05 393.8,97.58 395.54,98.08 397.27,88.22 399.01,88.31 400.75,96.23 402.49,93.31 404.23,77.48 405.97,63.8 407.71,88.37 409.45,101.17 411.18,103.7 412.92,104.64 414.66,105.25 416.4,106.03 418.14,106.6 419.88,106.81 421.62,106.86 423.36,106.9 425.09,106.86 426.83,106.01 428.57,100.11 430.31,81.95 432.05,56.65 433.79,80.95 435.53,97.55 437.27,98.05 439.01,88.14 440.74,88.23 442.48,96.18 444.22,93.26 445.96,77.36 447.7,63.62 449.44,88.29 451.18,101.15 452.92,103.69 454.65,104.63 456.39,105.24 458.13,106.03 459.87,106.6 461.61,106.81 463.35,106.86 465.09,106.9 466.83,106.86 468.56,106.01 470.3,100.08 472.04,81.85 473.78,56.44 475.52,80.84 477.26,97.51 479,98.01 480.74,88.06 482.47,88.15 484.21,96.14 485.95,93.2 487.69,77.24 489.43,63.44 491.17,88.21 492.91,101.12 494.65,103.67 496.38,104.62 498.12,105.23 499.86,106.03 501.6,106.59 503.34,106.81 505.08,106.86 506.82,106.9 508.56,106.86 510.3,106.01 512.03,100.05 513.77,81.74 515.51,56.23 517.25,80.73 518.99,97.47 520.73,97.97 522.47,87.98 524.21,88.07 525.94,96.09 527.68,93.14 529.42,77.11 531.16,63.26 532.9,88.14 534.64,101.1 536.38,103.66 538.12,104.61 539.85,105.23 541.59,106.02 543.33,106.13 545.07,106.53 546.81,106.67 548.55,106.72 550.29,106.79 552.03,106.76 553.76,106.44 555.5,105.87 557.24,105.39 558.98,104.84 560.72,104.51 562.46,104.47 564.2,104.52 565.94,104.36 567.67,104.01 569.41,103.86 571.15,104.14 572.89,103.6 574.63,103.05 576.37,104.4 578.11,105.08 579.85,105.18 581.59,105.26 583.32,105.51 585.06,106.13 586.8,106.53 588.54,106.67 590.28,106.72 592.02,106.78 593.76,106.76 595.5,106.44 597.23,105.87 598.97,105.39 600.71,104.83 602.45,104.5 604.19,104.46 605.93,104.51 607.67,104.35 609.41,104 611.14,103.85 612.88,104.13 614.62,103.58 616.36,103.03 618.1,104.39 619.84,105.07 621.58,105.17 623.32,105.26 625.05,105.5 625.05,106.83 623.32,106.8 621.58,106.79 619.84,106.78 618.1,106.7 616.36,106.56 614.62,106.62 612.88,106.68 611.14,106.65 609.41,106.66 607.67,106.7 605.93,106.72 604.19,106.71 602.45,106.72 600.71,106.75 598.97,106.81 597.23,106.87 595.5,106.93 593.76,106.96 592.02,106.97 590.28,106.96 588.54,106.95 586.8,106.94 585.06,106.89 583.32,106.83 581.59,106.8 579.85,106.79 578.11,106.78 576.37,106.71 574.63,106.56 572.89,106.62 571.15,106.68 569.41,106.65 567.67,106.66 565.94,106.7 564.2,106.72 562.46,106.71 560.72,106.72 558.98,106.75 557.24,106.81 555.5,106.87 553.76,106.93 552.03,106.96 550.29,106.97 548.55,106.96 546.81,106.95 545.07,106.94 543.33,106.89 541.59,106.88 539.85,106.79 538.12,106.72 536.38,106.62 534.64,106.33 532.9,104.89 531.16,102.11 529.42,103.66 527.68,105.44 525.94,105.77 524.21,104.88 522.47,104.87 520.73,105.98 518.99,105.93 517.25,104.06 515.51,101.33 513.77,104.17 512.03,106.21 510.3,106.88 508.56,106.97 506.82,106.98 505.08,106.97 503.34,106.97 501.6,106.94 499.86,106.88 498.12,106.79 496.38,106.72 494.65,106.62 492.91,106.33 491.17,104.89 489.43,102.13 487.69,103.67 485.95,105.45 484.21,105.78 482.47,104.89 480.74,104.88 479,105.99 477.26,105.93 475.52,104.07 473.78,101.35 472.04,104.18 470.3,106.22 468.56,106.88 466.83,106.97 465.09,106.98 463.35,106.97 461.61,106.97 459.87,106.94 458.13,106.88 456.39,106.79 454.65,106.72 452.92,106.62 451.18,106.34 449.44,104.9 447.7,102.15 445.96,103.68 444.22,105.46 442.48,105.78 440.74,104.9 439.01,104.88 437.27,105.99 435.53,105.93 433.79,104.08 432.05,101.37 430.31,104.19 428.57,106.22 426.83,106.88 425.09,106.97 423.36,106.98 421.62,106.97 419.88,106.97 418.14,106.94 416.4,106.88 414.66,106.79 412.92,106.73 411.18,106.62 409.45,106.34 407.71,104.91 405.97,102.17 404.23,103.7 402.49,105.46 400.75,105.79 399.01,104.9 397.27,104.89 395.54,105.99 393.8,105.94 392.06,104.09 390.32,101.4 388.58,104.21 386.84,106.22 385.1,106.88 383.36,106.97 381.63,106.98 379.89,106.97 378.15,106.97 376.41,106.94 374.67,106.88 372.93,106.79 371.19,106.73 369.45,106.62 367.72,106.34 365.98,104.92 364.24,102.19 362.5,103.71 360.76,105.47 359.02,105.79 357.28,104.91 355.54,104.9 353.8,106 352.07,105.94 350.33,104.11 348.59,101.42 346.85,104.22 345.11,106.23 343.37,106.88 341.63,106.97 339.89,106.98 338.16,106.97 336.42,106.97 334.68,106.94 332.94,106.83 331.2,106.8 329.46,106.8 327.72,106.79 325.98,106.71 324.25,106.57 322.51,106.63 320.77,106.68 319.03,106.66 317.29,106.67 315.55,106.71 313.81,106.73 312.07,106.72 310.34,106.72 308.6,106.76 306.86,106.82 305.12,106.87 303.38,106.93 301.64,106.96 299.9,106.97 298.16,106.96 296.43,106.95 294.69,106.94 292.95,106.9 291.21,106.83 289.47,106.81 287.73,106.8 285.99,106.79 284.25,106.71 282.51,106.57 280.78,106.63 279.04,106.69 277.3,106.66 275.56,106.67 273.82,106.71 272.08,106.73 270.34,106.72 268.6,106.73 266.87,106.76 265.13,106.82 263.39,106.87 261.65,106.93 259.91,106.96 258.17,106.97 256.43,106.96 254.69,106.95 252.96,106.94 251.22,106.9 249.48,106.88 247.74,106.8 246,106.73 244.26,106.63 242.52,106.35 240.78,104.94 239.05,102.25 237.31,103.75 235.57,105.49 233.83,105.81 232.09,104.94 230.35,104.93 228.61,106.01 226.87,105.96 225.14,104.14 223.4,101.49 221.66,104.25 219.92,106.24 218.18,106.88 216.44,106.97 214.7,106.98 212.96,106.97 211.22,106.97 209.49,106.95 209.49,106.61 211.22,106.82 "
         style="fill:#d3d1ff;stroke:none;stroke-width:0;stroke-linecap:butt"
         id="polygon63" />
      <polygon
         points="212.96,106.9 214.7,106.93 216.44,106.9 218.18,106.33 219.92,102.38 221.66,90.21 223.4,73.25 225.14,89.54 226.87,100.66 228.61,101 230.35,94.36 232.09,94.42 233.83,99.75 235.57,97.79 237.31,87.13 239.05,77.93 240.78,94.46 242.52,103.07 244.26,104.78 246,105.41 247.74,105.82 249.48,106.35 251.22,106.42 252.96,106.68 254.69,106.78 256.43,106.81 258.17,106.85 259.91,106.84 261.65,106.63 263.39,106.25 265.13,105.93 266.87,105.56 268.6,105.35 270.34,105.32 272.08,105.35 273.82,105.25 275.56,105.02 277.3,104.92 279.04,105.1 280.78,104.75 282.51,104.38 284.25,105.28 285.99,105.73 287.73,105.79 289.47,105.85 291.21,106.01 292.95,106.42 294.69,106.68 296.43,106.78 298.16,106.81 299.9,106.85 301.64,106.84 303.38,106.63 305.12,106.25 306.86,105.93 308.6,105.56 310.34,105.34 312.07,105.32 313.81,105.35 315.55,105.24 317.29,105.01 319.03,104.91 320.77,105.09 322.51,104.74 324.25,104.37 325.98,105.27 327.72,105.72 329.46,105.79 331.2,105.84 332.94,106 334.68,106.72 336.42,106.87 338.16,106.9 339.89,106.93 341.63,106.9 343.37,106.33 345.11,102.32 346.85,90 348.59,72.83 350.33,89.32 352.07,100.58 353.8,100.92 355.54,94.2 357.28,94.26 359.02,99.66 360.76,97.67 362.5,86.88 364.24,77.56 365.98,94.3 367.72,103.02 369.45,104.75 371.19,105.39 372.93,105.8 374.67,106.34 376.41,106.72 378.15,106.87 379.89,106.9 381.63,106.93 383.36,106.9 385.1,106.32 386.84,102.3 388.58,89.93 390.32,72.69 392.06,89.24 393.8,100.55 395.54,100.9 397.27,94.14 399.01,94.21 400.75,99.63 402.49,97.63 404.23,86.8 405.97,77.44 407.71,94.25 409.45,103.01 411.18,104.74 412.92,105.38 414.66,105.8 416.4,106.34 418.14,106.72 419.88,106.87 421.62,106.9 423.36,106.93 425.09,106.9 426.83,106.32 428.57,102.28 430.31,89.86 432.05,72.55 433.79,89.17 435.53,100.53 437.27,100.87 439.01,94.09 440.74,94.15 442.48,99.6 444.22,97.59 445.96,86.72 447.7,77.32 449.44,94.2 451.18,102.99 452.92,104.73 454.65,105.37 456.39,105.79 458.13,106.33 459.87,106.72 461.61,106.87 463.35,106.9 465.09,106.93 466.83,106.9 468.56,106.32 470.3,102.26 472.04,89.79 473.78,72.41 475.52,89.1 477.26,100.5 479,100.84 480.74,94.04 482.47,94.1 484.21,99.57 485.95,97.55 487.69,86.63 489.43,77.2 491.17,94.14 492.91,102.97 494.65,104.72 496.38,105.37 498.12,105.79 499.86,106.33 501.6,106.72 503.34,106.87 505.08,106.9 506.82,106.93 508.56,106.9 510.3,106.32 512.03,102.24 513.77,89.72 515.51,72.26 517.25,89.02 518.99,100.47 520.73,100.82 522.47,93.98 524.21,94.05 525.94,99.53 527.68,97.52 529.42,86.55 531.16,77.07 532.9,94.09 534.64,102.96 536.38,104.71 538.12,105.36 539.85,105.78 541.59,106.33 543.33,106.4 545.07,106.68 546.81,106.77 548.55,106.81 550.29,106.85 552.03,106.83 553.76,106.62 555.5,106.23 557.24,105.9 558.98,105.52 560.72,105.3 562.46,105.28 564.2,105.31 565.94,105.2 567.67,104.96 569.41,104.86 571.15,105.05 572.89,104.68 574.63,104.31 576.37,105.22 578.11,105.69 579.85,105.76 581.59,105.81 583.32,105.98 585.06,106.4 586.8,106.67 588.54,106.77 590.28,106.81 592.02,106.85 593.76,106.83 595.5,106.62 597.23,106.23 598.97,105.9 600.71,105.52 602.45,105.29 604.19,105.27 605.93,105.3 607.67,105.19 609.41,104.95 611.14,104.85 612.88,105.04 614.62,104.67 616.36,104.29 618.1,105.22 619.84,105.68 621.58,105.75 623.32,105.81 625.05,105.98 625.05,106.75 623.32,106.71 621.58,106.7 619.84,106.68 618.1,106.57 616.36,106.36 614.62,106.44 612.88,106.53 611.14,106.49 609.41,106.51 607.67,106.57 605.93,106.59 604.19,106.58 602.45,106.59 600.71,106.64 598.97,106.73 597.23,106.81 595.5,106.9 593.76,106.95 592.02,106.96 590.28,106.94 588.54,106.94 586.8,106.91 585.06,106.85 583.32,106.75 581.59,106.71 579.85,106.7 578.11,106.68 576.37,106.57 574.63,106.36 572.89,106.45 571.15,106.53 569.41,106.49 567.67,106.51 565.94,106.57 564.2,106.59 562.46,106.59 560.72,106.59 558.98,106.64 557.24,106.73 555.5,106.81 553.76,106.9 552.03,106.95 550.29,106.96 548.55,106.95 546.81,106.94 545.07,106.91 543.33,106.85 541.59,106.83 539.85,106.7 538.12,106.6 536.38,106.45 534.64,106.03 532.9,103.91 531.16,99.86 529.42,102.12 527.68,104.73 525.94,105.21 524.21,103.9 522.47,103.89 520.73,105.52 518.99,105.44 517.25,102.71 515.51,98.71 513.77,102.87 512.03,105.86 510.3,106.83 508.56,106.97 506.82,106.97 505.08,106.97 503.34,106.96 501.6,106.92 499.86,106.83 498.12,106.7 496.38,106.6 494.65,106.45 492.91,106.03 491.17,103.93 489.43,99.89 487.69,102.14 485.95,104.74 484.21,105.22 482.47,103.92 480.74,103.9 479,105.52 477.26,105.44 475.52,102.72 473.78,98.75 472.04,102.89 470.3,105.86 468.56,106.83 466.83,106.97 465.09,106.97 463.35,106.97 461.61,106.96 459.87,106.92 458.13,106.83 456.39,106.7 454.65,106.6 452.92,106.45 451.18,106.04 449.44,103.94 447.7,99.92 445.96,102.16 444.22,104.75 442.48,105.23 440.74,103.93 439.01,103.91 437.27,105.53 435.53,105.45 433.79,102.74 432.05,98.78 430.31,102.91 428.57,105.87 426.83,106.83 425.09,106.97 423.36,106.97 421.62,106.97 419.88,106.96 418.14,106.92 416.4,106.83 414.66,106.7 412.92,106.6 411.18,106.45 409.45,106.04 407.71,103.95 405.97,99.95 404.23,102.18 402.49,104.76 400.75,105.23 399.01,103.94 397.27,103.93 395.54,105.54 393.8,105.45 392.06,102.76 390.32,98.81 388.58,102.92 386.84,105.87 385.1,106.83 383.36,106.97 381.63,106.97 379.89,106.97 378.15,106.96 376.41,106.92 374.67,106.83 372.93,106.71 371.19,106.61 369.45,106.45 367.72,106.04 365.98,103.96 364.24,99.97 362.5,102.2 360.76,104.77 359.02,105.24 357.28,103.95 355.54,103.94 353.8,105.54 352.07,105.46 350.33,102.78 348.59,98.85 346.85,102.94 345.11,105.87 343.37,106.83 341.63,106.97 339.89,106.97 338.16,106.97 336.42,106.96 334.68,106.92 332.94,106.76 331.2,106.72 329.46,106.71 327.72,106.69 325.98,106.58 324.25,106.37 322.51,106.46 320.77,106.54 319.03,106.5 317.29,106.52 315.55,106.58 313.81,106.6 312.07,106.6 310.34,106.6 308.6,106.65 306.86,106.74 305.12,106.81 303.38,106.9 301.64,106.95 299.9,106.96 298.16,106.95 296.43,106.94 294.69,106.92 292.95,106.85 291.21,106.76 289.47,106.72 287.73,106.71 285.99,106.69 284.25,106.59 282.51,106.38 280.78,106.46 279.04,106.55 277.3,106.5 275.56,106.53 273.82,106.58 272.08,106.6 270.34,106.6 268.6,106.6 266.87,106.65 265.13,106.74 263.39,106.81 261.65,106.9 259.91,106.95 258.17,106.96 256.43,106.95 254.69,106.94 252.96,106.92 251.22,106.85 249.48,106.83 247.74,106.71 246,106.61 244.26,106.46 242.52,106.05 240.78,104 239.05,100.06 237.31,102.25 235.57,104.79 233.83,105.26 232.09,103.99 230.35,103.98 228.61,105.56 226.87,105.48 225.14,102.83 223.4,98.95 221.66,102.99 219.92,105.89 218.18,106.83 216.44,106.97 214.7,106.97 212.96,106.97 211.22,106.96 209.49,106.93 209.49,106.73 211.22,106.87 "
         style="fill:#8f97fe;stroke:none;stroke-width:0;stroke-linecap:butt"
         id="polygon64" />
      <polyline
         points="209.49,106.84 211.22,106.92 212.96,106.94 214.70,106.95 216.44,106.94 218.18,106.62 219.92,104.38 221.66,97.51 223.40,87.94 225.14,97.13 226.87,103.41 228.61,103.60 230.35,99.86 232.09,99.89 233.83,102.90 235.57,101.79 237.31,95.78 239.05,90.58 240.78,99.91 242.52,104.78 244.26,105.74 246.00,106.09 247.74,106.33 249.48,106.63 251.22,106.67 252.96,106.82 254.69,106.87 256.43,106.89 258.17,106.91 259.91,106.90 261.65,106.79 263.39,106.57 265.13,106.39 266.87,106.19 268.60,106.07 270.34,106.05 272.08,106.07 273.82,106.01 275.56,105.88 277.30,105.82 279.04,105.93 280.78,105.73 282.51,105.52 284.25,106.03 285.99,106.28 287.73,106.31 289.47,106.35 291.21,106.44 292.95,106.67 294.69,106.82 296.43,106.87 298.16,106.89 299.90,106.91 301.64,106.90 303.38,106.78 305.12,106.57 306.86,106.39 308.60,106.18 310.34,106.06 312.07,106.05 313.81,106.07 315.55,106.01 317.29,105.88 319.03,105.82 320.77,105.92 322.51,105.72 324.25,105.52 325.98,106.02 327.72,106.28 329.46,106.31 331.20,106.34 332.94,106.44 334.68,106.84 336.42,106.92 338.16,106.94 339.89,106.95 341.63,106.94 343.37,106.61 345.11,104.35 346.85,97.40 348.59,87.70 350.33,97.01 352.07,103.37 353.80,103.56 355.54,99.77 357.28,99.80 359.02,102.85 360.76,101.73 362.50,95.64 364.24,90.37 365.98,99.83 367.72,104.75 369.45,105.72 371.19,106.08 372.93,106.32 374.67,106.62 376.41,106.84 378.15,106.92 379.89,106.94 381.63,106.95 383.36,106.94 385.10,106.61 386.84,104.34 388.58,97.36 390.32,87.62 392.06,96.97 393.80,103.36 395.54,103.55 397.27,99.74 399.01,99.77 400.75,102.83 402.49,101.71 404.23,95.59 405.97,90.31 407.71,99.80 409.45,104.74 411.18,105.72 412.92,106.08 414.66,106.32 416.40,106.62 418.14,106.84 419.88,106.92 421.62,106.94 423.36,106.95 425.09,106.94 426.83,106.61 428.57,104.33 430.31,97.32 432.05,87.54 433.79,96.93 435.53,103.34 437.27,103.53 439.01,99.71 440.74,99.74 442.48,102.81 444.22,101.68 445.96,95.54 447.70,90.24 449.44,99.77 451.18,104.73 452.92,105.71 454.65,106.08 456.39,106.31 458.13,106.62 459.87,106.84 461.61,106.92 463.35,106.94 465.09,106.95 466.83,106.94 468.56,106.61 470.30,104.32 472.04,97.28 473.78,87.46 475.52,96.89 477.26,103.33 479.00,103.52 480.74,99.68 482.47,99.71 484.21,102.80 485.95,101.66 487.69,95.50 489.43,90.17 491.17,99.74 492.91,104.72 494.65,105.71 496.38,106.07 498.12,106.31 499.86,106.62 501.60,106.84 503.34,106.92 505.08,106.94 506.82,106.95 508.56,106.94 510.30,106.61 512.03,104.31 513.77,97.24 515.51,87.38 517.25,96.84 518.99,103.31 520.73,103.51 522.47,99.65 524.21,99.68 525.94,102.78 527.68,101.64 529.42,95.45 531.16,90.10 532.90,99.71 534.64,104.71 536.38,105.70 538.12,106.07 539.85,106.31 541.59,106.61 543.33,106.66 545.07,106.81 546.81,106.87 548.55,106.89 550.29,106.91 552.03,106.90 553.76,106.78 555.50,106.56 557.24,106.38 558.98,106.16 560.72,106.04 562.46,106.03 564.20,106.04 565.94,105.98 567.67,105.85 569.41,105.79 571.15,105.90 572.89,105.69 574.63,105.48 576.37,106.00 578.11,106.26 579.85,106.30 581.59,106.33 583.32,106.42 585.06,106.66 586.80,106.81 588.54,106.87 590.28,106.89 592.02,106.91 593.76,106.90 595.50,106.78 597.23,106.56 598.97,106.37 600.71,106.16 602.45,106.03 604.19,106.02 605.93,106.04 607.67,105.98 609.41,105.84 611.14,105.78 612.88,105.89 614.62,105.69 616.36,105.47 618.10,105.99 619.84,106.25 621.58,106.29 623.32,106.32 625.05,106.42 "
         style="stroke:#446ffc;stroke-width:1.07;stroke-linecap:butt"
         id="polyline64" />
      <polyline
         points="-249.55,106.85 -247.81,106.94 -246.07,106.97 -244.34,106.97 -242.60,106.96 -240.86,106.70 -239.12,104.36 -237.38,98.16 -235.64,87.91 -233.90,98.08 -232.16,104.06 -230.43,104.05 -228.69,100.86 -226.95,101.29 -225.21,103.73 -223.47,102.57 -221.73,97.15 -219.99,91.26 -218.25,100.82 -216.52,105.20 -214.78,106.08 -213.04,106.33 -211.30,106.55 -209.56,106.80 -207.82,106.96 -206.08,106.96 -204.34,106.94 -202.61,106.97 -200.87,106.97 -199.13,106.60 -197.39,104.25 -195.65,97.97 -193.91,88.86 -192.17,97.34 -190.43,104.06 -188.69,104.01 -186.96,100.89 -185.22,101.13 -183.48,103.24 -181.74,102.67 -180.00,97.17 -178.26,92.39 -176.52,100.46 -174.78,105.23 -173.05,106.29 -171.31,106.44 -169.57,106.55 -167.83,106.77 -166.09,106.92 -164.35,106.93 -162.61,106.96 -160.87,106.96 -159.14,106.97 -157.40,106.63 -155.66,104.48 -153.92,97.82 -152.18,88.43 -150.44,98.23 -148.70,103.68 -146.96,104.36 -145.23,100.88 -143.49,100.85 -141.75,103.66 -140.01,102.63 -138.27,97.73 -136.53,91.97 -134.79,100.73 -133.05,104.94 -131.32,106.13 -129.58,106.54 -127.84,106.50 -126.10,106.69 -124.36,106.88 -122.62,106.97 -120.88,106.92 -119.14,106.95 -117.40,106.96 -115.67,106.66 -113.93,104.14 -112.19,97.59 -110.45,88.33 -108.71,96.39 -106.97,103.87 -105.23,104.38 -103.49,100.75 -101.76,100.71 -100.02,103.01 -98.28,102.10 -96.54,97.41 -94.80,93.04 -93.06,101.16 -91.32,104.76 -89.58,106.01 -87.85,106.26 -86.11,106.44 -84.37,106.62 -82.63,106.88 -80.89,106.87 -79.15,106.92 -77.41,106.96 -75.67,106.93 -73.94,106.71 -72.20,104.50 -70.46,98.14 -68.72,88.82 -66.98,97.81 -65.24,103.93 -63.50,104.25 -61.76,100.34 -60.03,100.59 -58.29,102.99 -56.55,102.31 -54.81,97.79 -53.07,93.88 -51.33,101.80 -49.59,105.06 -47.85,105.72 -46.11,105.98 -44.38,106.47 -42.64,106.62 -40.90,106.71 -39.16,106.83 -37.42,106.95 -35.68,106.94 -33.94,106.97 -32.20,106.90 -30.47,106.60 -28.73,106.36 -26.99,106.35 -25.25,106.24 -23.51,106.27 -21.77,106.13 -20.03,105.99 -18.29,106.29 -16.56,106.15 -14.82,106.01 -13.08,106.22 -11.34,106.08 -9.60,105.93 -7.86,106.29 -6.12,106.18 -4.38,106.37 -2.65,106.55 -0.91,106.49 0.83,106.78 2.57,106.92 4.31,106.90 6.05,106.90 7.79,106.96 9.53,106.95 11.26,106.86 13.00,106.66 14.74,106.20 16.48,101.58 18.22,100.41 19.96,105.04 21.70,105.65 23.44,106.27 25.18,106.32 26.91,105.90 28.65,106.15 30.39,106.17 32.13,106.11 33.87,106.40 35.61,106.60 37.35,106.54 39.09,106.62 40.82,106.83 42.56,106.85 44.30,106.96 46.04,106.96 47.78,106.97 49.52,106.97 51.26,106.70 53.00,104.46 54.73,98.36 56.47,90.39 58.21,95.96 59.95,103.49 61.69,104.41 63.43,101.58 65.17,101.84 66.91,104.28 68.64,103.26 70.38,97.95 72.12,91.35 73.86,101.00 75.60,105.28 77.34,106.25 79.08,106.42 80.82,106.59 82.55,106.77 84.29,106.91 86.03,106.94 87.77,106.97 89.51,106.97 91.25,106.94 92.99,106.65 94.73,104.18 96.47,98.46 98.20,86.83 99.94,97.74 101.68,103.81 103.42,104.27 105.16,100.89 106.90,101.00 108.64,104.02 110.38,102.88 112.11,97.02 113.85,91.80 115.59,100.83 117.33,104.92 119.07,104.84 120.81,105.92 122.55,106.22 124.29,106.26 126.02,106.55 127.76,106.16 129.50,106.66 131.24,106.97 132.98,106.96 134.72,106.67 136.46,104.64 138.20,97.87 139.93,88.48 141.67,97.74 143.41,103.46 145.15,104.35 146.89,100.27 148.63,100.43 150.37,103.10 152.11,102.20 153.85,97.43 155.58,91.91 157.32,100.27 159.06,104.87 160.80,106.00 162.54,106.26 164.28,106.62 166.02,106.69 167.76,106.86 169.49,106.92 171.23,106.97 172.97,106.97 174.71,106.97 176.45,106.70 178.19,104.14 179.93,98.06 181.67,88.78 183.40,97.09 185.14,103.59 186.88,103.90 188.62,100.58 190.36,100.81 192.10,103.10 193.84,101.99 195.58,97.03 197.31,90.84 199.05,101.12 200.79,105.32 202.53,106.35 204.27,106.43 206.01,106.45 207.75,106.62 "
         style="stroke-width:1.07;stroke-linecap:butt"
         id="polyline65" />
    </g>
    <g
       clip-path="url(#cpNDIuNTZ8MzM0LjY4fDUuNDh8MjA4LjQ4)"
       id="g66" />
    <defs
       id="defs66">
      <clipPath
         id="cp-2">
        <path
           d="m 42.56,157.73 v -50.75 h 292.12 v 50.75 z"
           id="path66" />
      </clipPath>
    </defs>
    <g
       clip-path="url(#cp-2)"
       id="g68">
      <polygon
         points="-79.15,157.62 -77.41,157.65 -75.67,157.61 -73.94,156.78 -72.2,151 -70.46,133.22 -68.72,108.43 -66.98,132.23 -65.24,148.49 -63.5,148.98 -61.76,139.27 -60.03,139.36 -58.29,147.15 -56.55,144.29 -54.81,128.72 -53.07,115.26 -51.33,139.43 -49.59,152.02 -47.85,154.51 -46.11,155.42 -44.38,156.03 -42.64,156.8 -40.9,156.9 -39.16,157.29 -37.42,157.43 -35.68,157.48 -33.94,157.54 -32.2,157.52 -30.47,157.21 -28.73,156.66 -26.99,156.19 -25.25,155.65 -23.51,155.33 -21.77,155.3 -20.03,155.34 -18.29,155.19 -16.56,154.85 -14.82,154.7 -13.08,154.97 -11.34,154.45 -9.6,153.91 -7.86,155.22 -6.12,155.88 -4.38,155.98 -2.65,156.06 -0.91,156.3 0.83,156.9 2.57,157.29 4.31,157.43 6.05,157.48 7.79,157.54 9.53,157.52 11.26,157.21 13,156.65 14.74,156.18 16.48,155.64 18.22,155.32 19.96,155.29 21.7,155.33 23.44,155.18 25.18,154.84 26.91,154.68 28.65,154.96 30.39,154.43 32.13,153.9 33.87,155.21 35.61,155.88 37.35,155.97 39.09,156.05 40.82,156.29 42.56,157.35 44.3,157.56 46.04,157.61 47.78,157.65 49.52,157.61 51.26,156.77 53,150.91 54.73,132.91 56.47,107.82 58.21,131.91 59.95,148.37 61.69,148.87 63.43,139.04 65.17,139.13 66.91,147.02 68.64,144.12 70.38,128.35 72.12,114.73 73.86,139.2 75.6,151.94 77.34,154.46 79.08,155.4 80.82,156.01 82.55,156.79 84.29,157.35 86.03,157.56 87.77,157.61 89.51,157.65 91.25,157.61 92.99,156.77 94.73,150.88 96.47,132.8 98.2,107.61 99.94,131.8 101.68,148.33 103.42,148.83 105.16,138.97 106.9,139.06 108.64,146.98 110.38,144.06 112.11,128.23 113.85,114.55 115.59,139.12 117.33,151.92 119.07,154.45 120.81,155.39 122.55,156 124.29,156.78 126.02,157.35 127.76,157.56 129.5,157.61 131.24,157.65 132.98,157.61 134.72,156.76 136.46,150.86 138.2,132.7 139.93,107.4 141.67,131.69 143.41,148.29 145.15,148.8 146.89,138.89 148.63,138.98 150.37,146.93 152.11,144.01 153.85,128.11 155.58,114.37 157.32,139.04 159.06,151.9 160.8,154.44 162.54,155.38 164.28,155.99 166.02,156.78 167.76,157.34 169.49,157.56 171.23,157.61 172.97,157.65 174.71,157.61 176.45,156.76 178.19,150.83 179.93,132.6 181.67,107.19 183.4,131.59 185.14,148.26 186.88,148.76 188.62,138.81 190.36,138.9 192.1,146.89 193.84,143.95 195.58,127.98 197.31,114.19 199.05,138.96 200.79,151.87 202.53,154.42 204.27,155.37 206.01,155.98 207.75,156.78 209.49,157.34 211.22,157.56 212.96,157.61 214.7,157.65 216.44,157.61 218.18,156.75 219.92,150.8 221.66,132.49 223.4,106.98 225.14,131.48 226.87,148.22 228.61,148.72 230.35,138.73 232.09,138.82 233.83,146.84 235.57,143.89 237.31,127.86 239.05,114.01 240.78,138.88 242.52,151.85 244.26,154.41 246,155.36 247.74,155.98 249.48,156.77 251.22,156.88 252.96,157.28 254.69,157.42 256.43,157.47 258.17,157.53 259.91,157.51 261.65,157.19 263.39,156.62 265.13,156.14 266.87,155.59 268.6,155.26 270.34,155.22 272.08,155.27 273.82,155.11 275.56,154.76 277.3,154.61 279.04,154.89 280.78,154.35 282.51,153.8 284.25,155.15 285.99,155.83 287.73,155.93 289.47,156.01 291.21,156.26 292.95,156.88 294.69,157.28 296.43,157.42 298.16,157.47 299.9,157.53 301.64,157.51 303.38,157.19 305.12,156.62 306.86,156.14 308.6,155.58 310.34,155.25 312.07,155.21 313.81,155.26 315.55,155.1 317.29,154.75 319.03,154.59 320.77,154.88 322.51,154.33 324.25,153.78 325.98,155.14 327.72,155.82 329.46,155.92 331.2,156 332.94,156.25 332.94,157.58 331.2,157.55 329.46,157.54 327.72,157.53 325.98,157.45 324.25,157.31 322.51,157.37 320.77,157.43 319.03,157.39 317.29,157.41 315.55,157.45 313.81,157.47 312.07,157.46 310.34,157.47 308.6,157.5 306.86,157.56 305.12,157.62 303.38,157.68 301.64,157.71 299.9,157.71 298.16,157.71 296.43,157.7 294.69,157.69 292.95,157.64 291.21,157.58 289.47,157.55 287.73,157.54 285.99,157.53 284.25,157.46 282.51,157.31 280.78,157.37 279.04,157.43 277.3,157.4 275.56,157.41 273.82,157.45 272.08,157.47 270.34,157.46 268.6,157.47 266.87,157.5 265.13,157.56 263.39,157.62 261.65,157.68 259.91,157.71 258.17,157.71 256.43,157.71 254.69,157.7 252.96,157.69 251.22,157.64 249.48,157.63 247.74,157.54 246,157.47 244.26,157.37 242.52,157.08 240.78,155.63 239.05,152.86 237.31,154.4 235.57,156.19 233.83,156.52 232.09,155.63 230.35,155.62 228.61,156.73 226.87,156.68 225.14,154.81 223.4,152.08 221.66,154.92 219.92,156.96 218.18,157.63 216.44,157.72 214.7,157.73 212.96,157.72 211.22,157.72 209.49,157.69 207.75,157.63 206.01,157.54 204.27,157.47 202.53,157.37 200.79,157.08 199.05,155.64 197.31,152.88 195.58,154.42 193.84,156.2 192.1,156.53 190.36,155.64 188.62,155.63 186.88,156.74 185.14,156.68 183.4,154.82 181.67,152.1 179.93,154.93 178.19,156.97 176.45,157.63 174.71,157.72 172.97,157.73 171.23,157.72 169.49,157.72 167.76,157.69 166.02,157.63 164.28,157.54 162.54,157.47 160.8,157.37 159.06,157.09 157.32,155.65 155.58,152.9 153.85,154.43 152.11,156.21 150.37,156.53 148.63,155.64 146.89,155.63 145.15,156.74 143.41,156.68 141.67,154.83 139.93,152.12 138.2,154.94 136.46,156.97 134.72,157.63 132.98,157.72 131.24,157.73 129.5,157.72 127.76,157.72 126.02,157.69 124.29,157.63 122.55,157.54 120.81,157.47 119.07,157.37 117.33,157.09 115.59,155.66 113.85,152.92 112.11,154.45 110.38,156.21 108.64,156.54 106.9,155.65 105.16,155.64 103.42,156.74 101.68,156.69 99.94,154.84 98.2,152.14 96.47,154.96 94.73,156.97 92.99,157.63 91.25,157.72 89.51,157.73 87.77,157.72 86.03,157.72 84.29,157.69 82.55,157.63 80.82,157.54 79.08,157.48 77.34,157.37 75.6,157.09 73.86,155.67 72.12,152.94 70.38,154.46 68.64,156.22 66.91,156.54 65.17,155.66 63.43,155.65 61.69,156.75 59.95,156.69 58.21,154.86 56.47,152.17 54.73,154.97 53,156.98 51.26,157.63 49.52,157.72 47.78,157.73 46.04,157.72 44.3,157.72 42.56,157.69 40.82,157.58 39.09,157.55 37.35,157.54 35.61,157.53 33.87,157.46 32.13,157.32 30.39,157.38 28.65,157.43 26.91,157.4 25.18,157.42 23.44,157.46 21.7,157.47 19.96,157.47 18.22,157.47 16.48,157.51 14.74,157.57 13,157.62 11.26,157.68 9.53,157.71 7.79,157.72 6.05,157.71 4.31,157.7 2.57,157.69 0.83,157.65 -0.91,157.58 -2.65,157.55 -4.38,157.55 -6.12,157.54 -7.86,157.46 -9.6,157.32 -11.34,157.38 -13.08,157.44 -14.82,157.41 -16.56,157.42 -18.29,157.46 -20.03,157.48 -21.77,157.47 -23.51,157.47 -25.25,157.51 -26.99,157.57 -28.73,157.62 -30.47,157.68 -32.2,157.71 -33.94,157.72 -35.68,157.71 -37.42,157.7 -39.16,157.69 -40.9,157.65 -42.64,157.63 -44.38,157.55 -46.11,157.48 -47.85,157.38 -49.59,157.1 -51.33,155.69 -53.07,153 -54.81,154.5 -56.55,156.24 -58.29,156.56 -60.03,155.69 -61.76,155.68 -63.5,156.76 -65.24,156.7 -66.98,154.89 -68.72,152.24 -70.46,155 -72.2,156.98 -73.94,157.63 -75.67,157.72 -77.41,157.73 -79.15,157.72 -80.89,157.72 -82.63,157.69 -82.63,157.35 -80.89,157.57 "
         style="fill:#d3d1ff;stroke:none;stroke-width:0;stroke-linecap:butt"
         id="polygon66" />
      <polygon
         points="-79.15,157.65 -77.41,157.68 -75.67,157.65 -73.94,157.08 -72.2,153.13 -70.46,140.96 -68.72,124 -66.98,140.29 -65.24,151.41 -63.5,151.75 -61.76,145.11 -60.03,145.17 -58.29,150.5 -56.55,148.54 -54.81,137.88 -53.07,128.68 -51.33,145.21 -49.59,153.82 -47.85,155.53 -46.11,156.16 -44.38,156.57 -42.64,157.1 -40.9,157.17 -39.16,157.43 -37.42,157.53 -35.68,157.56 -33.94,157.6 -32.2,157.59 -30.47,157.38 -28.73,157 -26.99,156.68 -25.25,156.31 -23.51,156.1 -21.77,156.07 -20.03,156.1 -18.29,156 -16.56,155.77 -14.82,155.67 -13.08,155.85 -11.34,155.49 -9.6,155.13 -7.86,156.02 -6.12,156.47 -4.38,156.54 -2.65,156.6 -0.91,156.76 0.83,157.17 2.57,157.43 4.31,157.53 6.05,157.56 7.79,157.6 9.53,157.59 11.26,157.38 13,157 14.74,156.68 16.48,156.31 18.22,156.09 19.96,156.07 21.7,156.1 23.44,155.99 25.18,155.76 26.91,155.66 28.65,155.84 30.39,155.49 32.13,155.12 33.87,156.02 35.61,156.47 37.35,156.53 39.09,156.59 40.82,156.75 42.56,157.47 44.3,157.62 46.04,157.65 47.78,157.68 49.52,157.65 51.26,157.08 53,153.07 54.73,140.75 56.47,123.58 58.21,140.07 59.95,151.33 61.69,151.67 63.43,144.95 65.17,145.01 66.91,150.41 68.64,148.42 70.38,137.63 72.12,128.31 73.86,145.05 75.6,153.77 77.34,155.5 79.08,156.14 80.82,156.55 82.55,157.09 84.29,157.47 86.03,157.62 87.77,157.65 89.51,157.68 91.25,157.65 92.99,157.07 94.73,153.05 96.47,140.68 98.2,123.44 99.94,139.99 101.68,151.3 103.42,151.64 105.16,144.89 106.9,144.96 108.64,150.38 110.38,148.38 112.11,137.55 113.85,128.19 115.59,145 117.33,153.76 119.07,155.49 120.81,156.13 122.55,156.55 124.29,157.08 126.02,157.47 127.76,157.62 129.5,157.65 131.24,157.68 132.98,157.65 134.72,157.07 136.46,153.03 138.2,140.61 139.93,123.3 141.67,139.92 143.41,151.28 145.15,151.62 146.89,144.84 148.63,144.9 150.37,150.35 152.11,148.34 153.85,137.47 155.58,128.07 157.32,144.95 159.06,153.74 160.8,155.48 162.54,156.12 164.28,156.54 166.02,157.08 167.76,157.47 169.49,157.62 171.23,157.65 172.97,157.68 174.71,157.65 176.45,157.07 178.19,153.01 179.93,140.54 181.67,123.16 183.4,139.85 185.14,151.25 186.88,151.59 188.62,144.79 190.36,144.85 192.1,150.31 193.84,148.3 195.58,137.38 197.31,127.95 199.05,144.89 200.79,153.72 202.53,155.47 204.27,156.12 206.01,156.54 207.75,157.08 209.49,157.47 211.22,157.62 212.96,157.65 214.7,157.68 216.44,157.65 218.18,157.07 219.92,152.99 221.66,140.47 223.4,123.01 225.14,139.77 226.87,151.22 228.61,151.57 230.35,144.73 232.09,144.8 233.83,150.28 235.57,148.26 237.31,137.3 239.05,127.82 240.78,144.84 242.52,153.71 244.26,155.46 246,156.11 247.74,156.53 249.48,157.08 251.22,157.15 252.96,157.43 254.69,157.52 256.43,157.56 258.17,157.6 259.91,157.58 261.65,157.37 263.39,156.98 265.13,156.65 266.87,156.27 268.6,156.05 270.34,156.02 272.08,156.05 273.82,155.95 275.56,155.71 277.3,155.61 279.04,155.8 280.78,155.43 282.51,155.05 284.25,155.97 285.99,156.44 287.73,156.5 289.47,156.56 291.21,156.73 292.95,157.15 294.69,157.42 296.43,157.52 298.16,157.55 299.9,157.6 301.64,157.58 303.38,157.37 305.12,156.98 306.86,156.65 308.6,156.27 310.34,156.04 312.07,156.02 313.81,156.05 315.55,155.94 317.29,155.7 319.03,155.6 320.77,155.79 322.51,155.42 324.25,155.04 325.98,155.97 327.72,156.43 329.46,156.5 331.2,156.56 332.94,156.72 332.94,157.5 331.2,157.46 329.46,157.45 327.72,157.43 325.98,157.32 324.25,157.11 322.51,157.19 320.77,157.28 319.03,157.23 317.29,157.26 315.55,157.32 313.81,157.34 312.07,157.33 310.34,157.34 308.6,157.39 306.86,157.48 305.12,157.56 303.38,157.65 301.64,157.7 299.9,157.7 298.16,157.69 296.43,157.69 294.69,157.66 292.95,157.6 291.21,157.5 289.47,157.46 287.73,157.45 285.99,157.43 284.25,157.32 282.51,157.11 280.78,157.2 279.04,157.28 277.3,157.24 275.56,157.26 273.82,157.32 272.08,157.34 270.34,157.34 268.6,157.34 266.87,157.39 265.13,157.48 263.39,157.56 261.65,157.65 259.91,157.7 258.17,157.7 256.43,157.69 254.69,157.69 252.96,157.66 251.22,157.6 249.48,157.58 247.74,157.45 246,157.35 244.26,157.19 242.52,156.78 240.78,154.66 239.05,150.61 237.31,152.87 235.57,155.48 233.83,155.96 232.09,154.65 230.35,154.64 228.61,156.27 226.87,156.18 225.14,153.46 223.4,149.46 221.66,153.62 219.92,156.61 218.18,157.58 216.44,157.72 214.7,157.72 212.96,157.72 211.22,157.71 209.49,157.67 207.75,157.58 206.01,157.45 204.27,157.35 202.53,157.2 200.79,156.78 199.05,154.68 197.31,150.64 195.58,152.89 193.84,155.49 192.1,155.97 190.36,154.67 188.62,154.65 186.88,156.27 185.14,156.19 183.4,153.47 181.67,149.5 179.93,153.64 178.19,156.61 176.45,157.58 174.71,157.72 172.97,157.72 171.23,157.72 169.49,157.71 167.76,157.67 166.02,157.58 164.28,157.45 162.54,157.35 160.8,157.2 159.06,156.78 157.32,154.69 155.58,150.67 153.85,152.91 152.11,155.5 150.37,155.98 148.63,154.68 146.89,154.66 145.15,156.28 143.41,156.2 141.67,153.49 139.93,149.53 138.2,153.65 136.46,156.62 134.72,157.58 132.98,157.72 131.24,157.72 129.5,157.72 127.76,157.71 126.02,157.67 124.29,157.58 122.55,157.45 120.81,157.35 119.07,157.2 117.33,156.79 115.59,154.7 113.85,150.7 112.11,152.93 110.38,155.51 108.64,155.98 106.9,154.69 105.16,154.68 103.42,156.29 101.68,156.2 99.94,153.51 98.2,149.56 96.47,153.67 94.73,156.62 92.99,157.58 91.25,157.72 89.51,157.72 87.77,157.72 86.03,157.71 84.29,157.67 82.55,157.58 80.82,157.45 79.08,157.36 77.34,157.2 75.6,156.79 73.86,154.71 72.12,150.72 70.38,152.95 68.64,155.52 66.91,155.99 65.17,154.7 63.43,154.69 61.69,156.29 59.95,156.21 58.21,153.53 56.47,149.6 54.73,153.69 53,156.62 51.26,157.58 49.52,157.72 47.78,157.72 46.04,157.72 44.3,157.71 42.56,157.67 40.82,157.51 39.09,157.47 37.35,157.45 35.61,157.44 33.87,157.33 32.13,157.12 30.39,157.21 28.65,157.29 26.91,157.25 25.18,157.27 23.44,157.33 21.7,157.35 19.96,157.35 18.22,157.35 16.48,157.4 14.74,157.49 13,157.56 11.26,157.65 9.53,157.7 7.79,157.71 6.05,157.7 4.31,157.69 2.57,157.67 0.83,157.6 -0.91,157.51 -2.65,157.47 -4.38,157.46 -6.12,157.44 -7.86,157.34 -9.6,157.13 -11.34,157.21 -13.08,157.29 -14.82,157.25 -16.56,157.28 -18.29,157.33 -20.03,157.35 -21.77,157.35 -23.51,157.35 -25.25,157.4 -26.99,157.49 -28.73,157.56 -30.47,157.65 -32.2,157.7 -33.94,157.71 -35.68,157.7 -37.42,157.69 -39.16,157.67 -40.9,157.6 -42.64,157.58 -44.38,157.46 -46.11,157.36 -47.85,157.21 -49.59,156.8 -51.33,154.75 -53.07,150.81 -54.81,153 -56.55,155.54 -58.29,156.01 -60.03,154.74 -61.76,154.73 -63.5,156.31 -65.24,156.23 -66.98,153.58 -68.72,149.7 -70.46,153.74 -72.2,156.64 -73.94,157.58 -75.67,157.72 -77.41,157.72 -79.15,157.72 -80.89,157.71 -82.63,157.67 -82.63,157.48 -80.89,157.62 "
         style="fill:#8f97fe;stroke:none;stroke-width:0;stroke-linecap:butt"
         id="polygon67" />
      <polyline
         points="-82.63,157.59 -80.89,157.67 -79.15,157.69 -77.41,157.70 -75.67,157.69 -73.94,157.37 -72.20,155.13 -70.46,148.26 -68.72,138.69 -66.98,147.88 -65.24,154.16 -63.50,154.35 -61.76,150.60 -60.03,150.64 -58.29,153.65 -56.55,152.54 -54.81,146.53 -53.07,141.33 -51.33,150.66 -49.59,155.53 -47.85,156.49 -46.11,156.84 -44.38,157.08 -42.64,157.37 -40.90,157.42 -39.16,157.57 -37.42,157.62 -35.68,157.64 -33.94,157.66 -32.20,157.65 -30.47,157.54 -28.73,157.32 -26.99,157.14 -25.25,156.94 -23.51,156.82 -21.77,156.80 -20.03,156.82 -18.29,156.76 -16.56,156.63 -14.82,156.57 -13.08,156.68 -11.34,156.48 -9.60,156.27 -7.86,156.77 -6.12,157.03 -4.38,157.06 -2.65,157.10 -0.91,157.19 0.83,157.42 2.57,157.57 4.31,157.62 6.05,157.64 7.79,157.66 9.53,157.65 11.26,157.53 13.00,157.32 14.74,157.14 16.48,156.93 18.22,156.81 19.96,156.80 21.70,156.82 23.44,156.76 25.18,156.63 26.91,156.57 28.65,156.67 30.39,156.47 32.13,156.27 33.87,156.77 35.61,157.02 37.35,157.06 39.09,157.09 40.82,157.18 42.56,157.59 44.30,157.67 46.04,157.69 47.78,157.70 49.52,157.69 51.26,157.36 53.00,155.10 54.73,148.15 56.47,138.45 58.21,147.76 59.95,154.12 61.69,154.31 63.43,150.52 65.17,150.55 66.91,153.60 68.64,152.48 70.38,146.39 72.12,141.12 73.86,150.57 75.60,155.50 77.34,156.47 79.08,156.83 80.82,157.07 82.55,157.37 84.29,157.59 86.03,157.67 87.77,157.69 89.51,157.70 91.25,157.69 92.99,157.36 94.73,155.09 96.47,148.11 98.20,138.37 99.94,147.72 101.68,154.10 103.42,154.30 105.16,150.49 106.90,150.52 108.64,153.58 110.38,152.45 112.11,146.34 113.85,141.06 115.59,150.54 117.33,155.49 119.07,156.47 120.81,156.83 122.55,157.07 124.29,157.37 126.02,157.59 127.76,157.67 129.50,157.69 131.24,157.70 132.98,157.69 134.72,157.36 136.46,155.08 138.20,148.07 139.93,138.29 141.67,147.68 143.41,154.09 145.15,154.28 146.89,150.46 148.63,150.49 150.37,153.56 152.11,152.43 153.85,146.29 155.58,140.99 157.32,150.52 159.06,155.48 160.80,156.46 162.54,156.83 164.28,157.06 166.02,157.37 167.76,157.59 169.49,157.67 171.23,157.69 172.97,157.70 174.71,157.69 176.45,157.36 178.19,155.07 179.93,148.03 181.67,138.21 183.40,147.64 185.14,154.07 186.88,154.27 188.62,150.43 190.36,150.46 192.10,153.55 193.84,152.41 195.58,146.24 197.31,140.92 199.05,150.49 200.79,155.47 202.53,156.46 204.27,156.82 206.01,157.06 207.75,157.37 209.49,157.58 211.22,157.67 212.96,157.69 214.70,157.70 216.44,157.69 218.18,157.36 219.92,155.06 221.66,147.99 223.40,138.13 225.14,147.59 226.87,154.06 228.61,154.25 230.35,150.40 232.09,150.43 233.83,153.53 235.57,152.39 237.31,146.20 239.05,140.85 240.78,150.46 242.52,155.46 244.26,156.45 246.00,156.82 247.74,157.06 249.48,157.36 251.22,157.41 252.96,157.56 254.69,157.62 256.43,157.63 258.17,157.66 259.91,157.65 261.65,157.53 263.39,157.31 265.13,157.13 266.87,156.91 268.60,156.79 270.34,156.78 272.08,156.79 273.82,156.73 275.56,156.60 277.30,156.54 279.04,156.65 280.78,156.44 282.51,156.23 284.25,156.75 285.99,157.01 287.73,157.04 289.47,157.08 291.21,157.17 292.95,157.41 294.69,157.56 296.43,157.62 298.16,157.63 299.90,157.66 301.64,157.65 303.38,157.53 305.12,157.31 306.86,157.12 308.60,156.91 310.34,156.78 312.07,156.77 313.81,156.79 315.55,156.73 317.29,156.59 319.03,156.53 320.77,156.64 322.51,156.43 324.25,156.22 325.98,156.74 327.72,157.00 329.46,157.04 331.20,157.07 332.94,157.17 "
         style="stroke:#446ffc;stroke-width:1.07;stroke-linecap:butt"
         id="polyline67" />
      <polyline
         points="-541.67,157.60 -539.93,157.69 -538.19,157.72 -536.45,157.72 -534.71,157.71 -532.97,157.45 -531.23,155.11 -529.50,148.91 -527.76,138.66 -526.02,148.83 -524.28,154.81 -522.54,154.80 -520.80,151.61 -519.06,152.04 -517.32,154.48 -515.59,153.32 -513.85,147.89 -512.11,142.01 -510.37,151.57 -508.63,155.95 -506.89,156.83 -505.15,157.08 -503.41,157.30 -501.68,157.55 -499.94,157.70 -498.20,157.70 -496.46,157.69 -494.72,157.72 -492.98,157.72 -491.24,157.35 -489.50,155.00 -487.77,148.72 -486.03,139.61 -484.29,148.09 -482.55,154.81 -480.81,154.76 -479.07,151.64 -477.33,151.88 -475.59,153.99 -473.85,153.42 -472.12,147.92 -470.38,143.14 -468.64,151.21 -466.90,155.98 -465.16,157.04 -463.42,157.19 -461.68,157.30 -459.94,157.52 -458.21,157.67 -456.47,157.68 -454.73,157.70 -452.99,157.70 -451.25,157.72 -449.51,157.38 -447.77,155.23 -446.03,148.57 -444.30,139.18 -442.56,148.98 -440.82,154.43 -439.08,155.11 -437.34,151.62 -435.60,151.60 -433.86,154.41 -432.12,153.38 -430.39,148.48 -428.65,142.72 -426.91,151.48 -425.17,155.69 -423.43,156.88 -421.69,157.29 -419.95,157.25 -418.21,157.44 -416.48,157.63 -414.74,157.72 -413.00,157.67 -411.26,157.70 -409.52,157.71 -407.78,157.41 -406.04,154.89 -404.30,148.34 -402.56,139.08 -400.83,147.14 -399.09,154.62 -397.35,155.13 -395.61,151.50 -393.87,151.46 -392.13,153.76 -390.39,152.85 -388.65,148.16 -386.92,143.79 -385.18,151.91 -383.44,155.51 -381.70,156.76 -379.96,157.01 -378.22,157.19 -376.48,157.36 -374.74,157.63 -373.01,157.62 -371.27,157.67 -369.53,157.70 -367.79,157.68 -366.05,157.46 -364.31,155.25 -362.57,148.89 -360.83,139.57 -359.10,148.56 -357.36,154.67 -355.62,155.00 -353.88,151.09 -352.14,151.34 -350.40,153.74 -348.66,153.06 -346.92,148.54 -345.19,144.63 -343.45,152.55 -341.71,155.80 -339.97,156.47 -338.23,156.73 -336.49,157.22 -334.75,157.37 -333.01,157.46 -331.27,157.58 -329.54,157.70 -327.80,157.69 -326.06,157.72 -324.32,157.65 -322.58,157.35 -320.84,157.11 -319.10,157.10 -317.36,156.99 -315.63,157.02 -313.89,156.88 -312.15,156.74 -310.41,157.04 -308.67,156.90 -306.93,156.76 -305.19,156.97 -303.45,156.83 -301.72,156.68 -299.98,157.04 -298.24,156.93 -296.50,157.12 -294.76,157.30 -293.02,157.24 -291.28,157.53 -289.54,157.67 -287.81,157.65 -286.07,157.65 -284.33,157.71 -282.59,157.70 -280.85,157.61 -279.11,157.41 -277.37,156.95 -275.63,152.32 -273.90,151.16 -272.16,155.79 -270.42,156.40 -268.68,157.02 -266.94,157.07 -265.20,156.65 -263.46,156.90 -261.72,156.92 -259.98,156.86 -258.25,157.15 -256.51,157.35 -254.77,157.29 -253.03,157.37 -251.29,157.58 -249.55,157.60 -247.81,157.71 -246.07,157.70 -244.34,157.72 -242.60,157.72 -240.86,157.45 -239.12,155.21 -237.38,149.11 -235.64,141.14 -233.90,146.71 -232.16,154.24 -230.43,155.16 -228.69,152.33 -226.95,152.59 -225.21,155.03 -223.47,154.01 -221.73,148.70 -219.99,142.10 -218.25,151.75 -216.52,156.03 -214.78,157.00 -213.04,157.17 -211.30,157.34 -209.56,157.52 -207.82,157.66 -206.08,157.69 -204.34,157.72 -202.61,157.72 -200.87,157.69 -199.13,157.40 -197.39,154.93 -195.65,149.21 -193.91,137.58 -192.17,148.49 -190.43,154.56 -188.69,155.02 -186.96,151.64 -185.22,151.75 -183.48,154.76 -181.74,153.63 -180.00,147.77 -178.26,142.55 -176.52,151.58 -174.78,155.67 -173.05,155.59 -171.31,156.67 -169.57,156.97 -167.83,157.01 -166.09,157.30 -164.35,156.91 -162.61,157.41 -160.87,157.72 -159.14,157.71 -157.40,157.42 -155.66,155.39 -153.92,148.62 -152.18,139.23 -150.44,148.49 -148.70,154.21 -146.96,155.10 -145.23,151.02 -143.49,151.18 -141.75,153.85 -140.01,152.95 -138.27,148.18 -136.53,142.66 -134.79,151.02 -133.05,155.62 -131.32,156.75 -129.58,157.01 -127.84,157.37 -126.10,157.44 -124.36,157.61 -122.62,157.67 -120.88,157.72 -119.14,157.72 -117.40,157.72 -115.67,157.45 -113.93,154.89 -112.19,148.81 -110.45,139.53 -108.71,147.84 -106.97,154.34 -105.23,154.65 -103.49,151.33 -101.76,151.55 -100.02,153.85 -98.28,152.74 -96.54,147.78 -94.80,141.59 -93.06,151.87 -91.32,156.07 -89.58,157.09 -87.85,157.18 -86.11,157.20 -84.37,157.37 "
         style="stroke-width:1.07;stroke-linecap:butt"
         id="polyline68" />
    </g>
    <g
       clip-path="url(#cpNDIuNTZ8MzM0LjY4fDUuNDh8MjA4LjQ4)"
       id="g69" />
    <defs
       id="defs69">
      <clipPath
         id="cp-3">
        <path
           d="m 42.56,208.48 v -50.75 h 1.74 v 50.75 z"
           id="path69" />
      </clipPath>
    </defs>
    <g
       clip-path="url(#cp-3)"
       id="g71">
      <polygon
         points="-371.27,208.36 -369.53,208.4 -367.79,208.36 -366.05,207.53 -364.31,201.75 -362.57,183.97 -360.83,159.18 -359.1,182.98 -357.36,199.24 -355.62,199.73 -353.88,190.02 -352.14,190.11 -350.4,197.9 -348.66,195.04 -346.92,179.47 -345.19,166.01 -343.45,190.17 -341.71,202.76 -339.97,205.25 -338.23,206.17 -336.49,206.78 -334.75,207.55 -333.01,207.65 -331.27,208.04 -329.54,208.18 -327.8,208.23 -326.06,208.29 -324.32,208.27 -322.58,207.96 -320.84,207.4 -319.1,206.94 -317.36,206.4 -315.63,206.08 -313.89,206.05 -312.15,206.09 -310.41,205.94 -308.67,205.6 -306.93,205.45 -305.19,205.72 -303.45,205.19 -301.72,204.66 -299.98,205.97 -298.24,206.63 -296.5,206.73 -294.76,206.81 -293.02,207.05 -291.28,207.65 -289.54,208.04 -287.81,208.18 -286.07,208.23 -284.33,208.29 -282.59,208.27 -280.85,207.96 -279.11,207.4 -277.37,206.93 -275.63,206.39 -273.9,206.07 -272.16,206.04 -270.42,206.08 -268.68,205.93 -266.94,205.59 -265.2,205.43 -263.46,205.71 -261.72,205.18 -259.98,204.65 -258.25,205.96 -256.51,206.63 -254.77,206.72 -253.03,206.8 -251.29,207.04 -249.55,208.1 -247.81,208.31 -246.07,208.36 -244.34,208.4 -242.6,208.36 -240.86,207.52 -239.12,201.66 -237.38,183.66 -235.64,158.56 -233.9,182.66 -232.16,199.12 -230.43,199.62 -228.69,189.79 -226.95,189.88 -225.21,197.77 -223.47,194.87 -221.73,179.1 -219.99,165.48 -218.25,189.94 -216.52,202.69 -214.78,205.21 -213.04,206.15 -211.3,206.75 -209.56,207.54 -207.82,208.1 -206.08,208.31 -204.34,208.36 -202.61,208.4 -200.87,208.36 -199.13,207.52 -197.39,201.63 -195.65,183.55 -193.91,158.36 -192.17,182.55 -190.43,199.08 -188.69,199.58 -186.96,189.71 -185.22,189.81 -183.48,197.73 -181.74,194.81 -180,178.98 -178.26,165.3 -176.52,189.87 -174.78,202.67 -173.05,205.2 -171.31,206.14 -169.57,206.75 -167.83,207.53 -166.09,208.1 -164.35,208.31 -162.61,208.36 -160.87,208.4 -159.14,208.36 -157.4,207.51 -155.66,201.61 -153.92,183.45 -152.18,158.15 -150.44,182.44 -148.7,199.04 -146.96,199.54 -145.23,189.64 -143.49,189.73 -141.75,197.68 -140.01,194.76 -138.27,178.86 -136.53,165.12 -134.79,189.79 -133.05,202.64 -131.32,205.19 -129.58,206.13 -127.84,206.74 -126.1,207.53 -124.36,208.09 -122.62,208.31 -120.88,208.36 -119.14,208.4 -117.4,208.36 -115.67,207.51 -113.93,201.58 -112.19,183.35 -110.45,157.94 -108.71,182.34 -106.97,199 -105.23,199.51 -103.49,189.56 -101.76,189.65 -100.02,197.64 -98.28,194.7 -96.54,178.73 -94.8,164.94 -93.06,189.71 -91.32,202.62 -89.58,205.17 -87.85,206.12 -86.11,206.73 -84.37,207.52 -82.63,208.09 -80.89,208.31 -79.15,208.36 -77.41,208.4 -75.67,208.36 -73.94,207.5 -72.2,201.55 -70.46,183.24 -68.72,157.73 -66.98,182.23 -65.24,198.96 -63.5,199.47 -61.76,189.48 -60.03,189.57 -58.29,197.59 -56.55,194.64 -54.81,178.61 -53.07,164.76 -51.33,189.63 -49.59,202.6 -47.85,205.16 -46.11,206.11 -44.38,206.73 -42.64,207.52 -40.9,207.63 -39.16,208.03 -37.42,208.17 -35.68,208.22 -33.94,208.28 -32.2,208.26 -30.47,207.94 -28.73,207.37 -26.99,206.89 -25.25,206.34 -23.51,206.01 -21.77,205.97 -20.03,206.02 -18.29,205.86 -16.56,205.51 -14.82,205.36 -13.08,205.64 -11.34,205.1 -9.6,204.55 -7.86,205.9 -6.12,206.58 -4.38,206.68 -2.65,206.76 -0.91,207.01 0.83,207.62 2.57,208.03 4.31,208.17 6.05,208.22 7.79,208.28 9.53,208.26 11.26,207.94 13,207.37 14.74,206.88 16.48,206.33 18.22,206 19.96,205.96 21.7,206.01 23.44,205.85 25.18,205.5 26.91,205.34 28.65,205.63 30.39,205.08 32.13,204.53 33.87,205.89 35.61,206.57 37.35,206.67 39.09,206.75 40.82,207 40.82,208.32 39.09,208.3 37.35,208.29 35.61,208.28 33.87,208.2 32.13,208.06 30.39,208.12 28.65,208.17 26.91,208.14 25.18,208.16 23.44,208.2 21.7,208.22 19.96,208.21 18.22,208.22 16.48,208.25 14.74,208.31 13,208.36 11.26,208.43 9.53,208.46 7.79,208.46 6.05,208.46 4.31,208.45 2.57,208.44 0.83,208.39 -0.91,208.33 -2.65,208.3 -4.38,208.29 -6.12,208.28 -7.86,208.2 -9.6,208.06 -11.34,208.12 -13.08,208.18 -14.82,208.15 -16.56,208.16 -18.29,208.2 -20.03,208.22 -21.77,208.21 -23.51,208.22 -25.25,208.25 -26.99,208.31 -28.73,208.37 -30.47,208.43 -32.2,208.46 -33.94,208.46 -35.68,208.46 -37.42,208.45 -39.16,208.44 -40.9,208.39 -42.64,208.38 -44.38,208.29 -46.11,208.22 -47.85,208.12 -49.59,207.83 -51.33,206.38 -53.07,203.61 -54.81,205.15 -56.55,206.94 -58.29,207.27 -60.03,206.38 -61.76,206.37 -63.5,207.48 -65.24,207.42 -66.98,205.56 -68.72,202.83 -70.46,205.67 -72.2,207.71 -73.94,208.38 -75.67,208.47 -77.41,208.48 -79.15,208.47 -80.89,208.47 -82.63,208.44 -84.37,208.38 -86.11,208.29 -87.85,208.22 -89.58,208.12 -91.32,207.83 -93.06,206.39 -94.8,203.63 -96.54,205.17 -98.28,206.95 -100.02,207.28 -101.76,206.39 -103.49,206.38 -105.23,207.48 -106.97,207.43 -108.71,205.57 -110.45,202.85 -112.19,205.68 -113.93,207.72 -115.67,208.38 -117.4,208.47 -119.14,208.48 -120.88,208.47 -122.62,208.47 -124.36,208.44 -126.1,208.38 -127.84,208.29 -129.58,208.22 -131.32,208.12 -133.05,207.83 -134.79,206.4 -136.53,203.65 -138.27,205.18 -140.01,206.95 -141.75,207.28 -143.49,206.39 -145.23,206.38 -146.96,207.49 -148.7,207.43 -150.44,205.58 -152.18,202.87 -153.92,205.69 -155.66,207.72 -157.4,208.38 -159.14,208.47 -160.87,208.48 -162.61,208.47 -164.35,208.47 -166.09,208.44 -167.83,208.38 -169.57,208.29 -171.31,208.22 -173.05,208.12 -174.78,207.84 -176.52,206.41 -178.26,203.67 -180,205.19 -181.74,206.96 -183.48,207.29 -185.22,206.4 -186.96,206.39 -188.69,207.49 -190.43,207.44 -192.17,205.59 -193.91,202.89 -195.65,205.7 -197.39,207.72 -199.13,208.38 -200.87,208.47 -202.61,208.48 -204.34,208.47 -206.08,208.47 -207.82,208.44 -209.56,208.38 -211.3,208.29 -213.04,208.23 -214.78,208.12 -216.52,207.84 -218.25,206.42 -219.99,203.69 -221.73,205.21 -223.47,206.97 -225.21,207.29 -226.95,206.41 -228.69,206.4 -230.43,207.5 -232.16,207.44 -233.9,205.6 -235.64,202.92 -237.38,205.72 -239.12,207.72 -240.86,208.38 -242.6,208.47 -244.34,208.48 -246.07,208.47 -247.81,208.47 -249.55,208.44 -251.29,208.33 -253.03,208.3 -254.77,208.29 -256.51,208.28 -258.25,208.21 -259.98,208.07 -261.72,208.13 -263.46,208.18 -265.2,208.15 -266.94,208.17 -268.68,208.21 -270.42,208.22 -272.16,208.22 -273.9,208.22 -275.63,208.26 -277.37,208.32 -279.11,208.37 -280.85,208.43 -282.59,208.46 -284.33,208.46 -286.07,208.46 -287.81,208.45 -289.54,208.44 -291.28,208.4 -293.02,208.33 -294.76,208.3 -296.5,208.29 -298.24,208.28 -299.98,208.21 -301.72,208.07 -303.45,208.13 -305.19,208.18 -306.93,208.16 -308.67,208.17 -310.41,208.21 -312.15,208.23 -313.89,208.22 -315.63,208.22 -317.36,208.26 -319.1,208.32 -320.84,208.37 -322.58,208.43 -324.32,208.46 -326.06,208.46 -327.8,208.46 -329.54,208.45 -331.27,208.44 -333.01,208.4 -334.75,208.38 -336.49,208.3 -338.23,208.23 -339.97,208.13 -341.71,207.85 -343.45,206.44 -345.19,203.75 -346.92,205.25 -348.66,206.99 -350.4,207.31 -352.14,206.44 -353.88,206.43 -355.62,207.51 -357.36,207.45 -359.1,205.64 -360.83,202.98 -362.57,205.75 -364.31,207.73 -366.05,208.38 -367.79,208.47 -369.53,208.48 -371.27,208.47 -373.01,208.47 -374.74,208.44 -374.74,208.1 -373.01,208.32 "
         style="fill:#d3d1ff;stroke:none;stroke-width:0;stroke-linecap:butt"
         id="polygon69" />
      <polygon
         points="-371.27,208.4 -369.53,208.43 -367.79,208.4 -366.05,207.83 -364.31,203.88 -362.57,191.71 -360.83,174.75 -359.1,191.03 -357.36,202.16 -355.62,202.49 -353.88,195.85 -352.14,195.92 -350.4,201.25 -348.66,199.28 -346.92,188.63 -345.19,179.43 -343.45,195.96 -341.71,204.57 -339.97,206.28 -338.23,206.9 -336.49,207.32 -334.75,207.84 -333.01,207.92 -331.27,208.18 -329.54,208.28 -327.8,208.31 -326.06,208.35 -324.32,208.34 -322.58,208.13 -320.84,207.75 -319.1,207.43 -317.36,207.06 -315.63,206.85 -313.89,206.82 -312.15,206.85 -310.41,206.75 -308.67,206.52 -306.93,206.42 -305.19,206.6 -303.45,206.24 -301.72,205.88 -299.98,206.77 -298.24,207.22 -296.5,207.29 -294.76,207.34 -293.02,207.51 -291.28,207.92 -289.54,208.18 -287.81,208.28 -286.07,208.31 -284.33,208.35 -282.59,208.34 -280.85,208.13 -279.11,207.75 -277.37,207.43 -275.63,207.06 -273.9,206.84 -272.16,206.82 -270.42,206.85 -268.68,206.74 -266.94,206.51 -265.2,206.41 -263.46,206.59 -261.72,206.23 -259.98,205.87 -258.25,206.77 -256.51,207.22 -254.77,207.28 -253.03,207.34 -251.29,207.5 -249.55,208.22 -247.81,208.37 -246.07,208.4 -244.34,208.43 -242.6,208.4 -240.86,207.83 -239.12,203.82 -237.38,191.5 -235.64,174.33 -233.9,190.82 -232.16,202.08 -230.43,202.42 -228.69,195.7 -226.95,195.76 -225.21,201.16 -223.47,199.17 -221.73,188.38 -219.99,179.06 -218.25,195.8 -216.52,204.52 -214.78,206.25 -213.04,206.88 -211.3,207.3 -209.56,207.84 -207.82,208.22 -206.08,208.37 -204.34,208.4 -202.61,208.43 -200.87,208.4 -199.13,207.82 -197.39,203.8 -195.65,191.43 -193.91,174.19 -192.17,190.74 -190.43,202.05 -188.69,202.39 -186.96,195.64 -185.22,195.71 -183.48,201.13 -181.74,199.13 -180,188.3 -178.26,178.94 -176.52,195.75 -174.78,204.51 -173.05,206.24 -171.31,206.88 -169.57,207.3 -167.83,207.83 -166.09,208.22 -164.35,208.37 -162.61,208.4 -160.87,208.43 -159.14,208.4 -157.4,207.82 -155.66,203.78 -153.92,191.36 -152.18,174.05 -150.44,190.67 -148.7,202.03 -146.96,202.37 -145.23,195.59 -143.49,195.65 -141.75,201.09 -140.01,199.09 -138.27,188.22 -136.53,178.82 -134.79,195.7 -133.05,204.49 -131.32,206.23 -129.58,206.87 -127.84,207.29 -126.1,207.83 -124.36,208.22 -122.62,208.37 -120.88,208.4 -119.14,208.43 -117.4,208.4 -115.67,207.82 -113.93,203.76 -112.19,191.29 -110.45,173.9 -108.71,190.6 -106.97,202 -105.23,202.34 -103.49,195.54 -101.76,195.6 -100.02,201.06 -98.28,199.05 -96.54,188.13 -94.8,178.7 -93.06,195.64 -91.32,204.47 -89.58,206.22 -87.85,206.86 -86.11,207.29 -84.37,207.83 -82.63,208.22 -80.89,208.37 -79.15,208.4 -77.41,208.43 -75.67,208.4 -73.94,207.81 -72.2,203.74 -70.46,191.22 -68.72,173.76 -66.98,190.52 -65.24,201.97 -63.5,202.32 -61.76,195.48 -60.03,195.55 -58.29,201.03 -56.55,199.01 -54.81,188.05 -53.07,178.57 -51.33,195.59 -49.59,204.46 -47.85,206.21 -46.11,206.86 -44.38,207.28 -42.64,207.83 -40.9,207.9 -39.16,208.17 -37.42,208.27 -35.68,208.3 -33.94,208.35 -32.2,208.33 -30.47,208.12 -28.73,207.73 -26.99,207.4 -25.25,207.02 -23.51,206.8 -21.77,206.77 -20.03,206.8 -18.29,206.7 -16.56,206.46 -14.82,206.35 -13.08,206.55 -11.34,206.18 -9.6,205.8 -7.86,206.72 -6.12,207.19 -4.38,207.25 -2.65,207.31 -0.91,207.48 0.83,207.9 2.57,208.17 4.31,208.27 6.05,208.3 7.79,208.35 9.53,208.33 11.26,208.11 13,207.72 14.74,207.4 16.48,207.02 18.22,206.79 19.96,206.77 21.7,206.8 23.44,206.69 25.18,206.45 26.91,206.35 28.65,206.54 30.39,206.17 32.13,205.79 33.87,206.72 35.61,207.18 37.35,207.25 39.09,207.31 40.82,207.47 40.82,208.25 39.09,208.21 37.35,208.2 35.61,208.18 33.87,208.07 32.13,207.85 30.39,207.94 28.65,208.03 26.91,207.98 25.18,208.01 23.44,208.06 21.7,208.09 19.96,208.08 18.22,208.09 16.48,208.14 14.74,208.23 13,208.31 11.26,208.4 9.53,208.45 7.79,208.45 6.05,208.44 4.31,208.44 2.57,208.41 0.83,208.35 -0.91,208.25 -2.65,208.21 -4.38,208.2 -6.12,208.18 -7.86,208.07 -9.6,207.86 -11.34,207.94 -13.08,208.03 -14.82,207.99 -16.56,208.01 -18.29,208.07 -20.03,208.09 -21.77,208.08 -23.51,208.09 -25.25,208.14 -26.99,208.23 -28.73,208.31 -30.47,208.4 -32.2,208.45 -33.94,208.45 -35.68,208.44 -37.42,208.44 -39.16,208.41 -40.9,208.35 -42.64,208.33 -44.38,208.2 -46.11,208.1 -47.85,207.94 -49.59,207.53 -51.33,205.41 -53.07,201.36 -54.81,203.62 -56.55,206.23 -58.29,206.71 -60.03,205.4 -61.76,205.39 -63.5,207.02 -65.24,206.93 -66.98,204.21 -68.72,200.21 -70.46,204.37 -72.2,207.36 -73.94,208.33 -75.67,208.47 -77.41,208.47 -79.15,208.47 -80.89,208.46 -82.63,208.42 -84.37,208.33 -86.11,208.2 -87.85,208.1 -89.58,207.95 -91.32,207.53 -93.06,205.43 -94.8,201.39 -96.54,203.64 -98.28,206.24 -100.02,206.72 -101.76,205.42 -103.49,205.4 -105.23,207.02 -106.97,206.94 -108.71,204.22 -110.45,200.24 -112.19,204.39 -113.93,207.36 -115.67,208.33 -117.4,208.47 -119.14,208.47 -120.88,208.47 -122.62,208.46 -124.36,208.42 -126.1,208.33 -127.84,208.2 -129.58,208.1 -131.32,207.95 -133.05,207.53 -134.79,205.44 -136.53,201.42 -138.27,203.66 -140.01,206.25 -141.75,206.72 -143.49,205.43 -145.23,205.41 -146.96,207.03 -148.7,206.95 -150.44,204.24 -152.18,200.28 -153.92,204.4 -155.66,207.36 -157.4,208.33 -159.14,208.47 -160.87,208.47 -162.61,208.47 -164.35,208.46 -166.09,208.42 -167.83,208.33 -169.57,208.2 -171.31,208.1 -173.05,207.95 -174.78,207.54 -176.52,205.45 -178.26,201.44 -180,203.68 -181.74,206.26 -183.48,206.73 -185.22,205.44 -186.96,205.43 -188.69,207.03 -190.43,206.95 -192.17,204.26 -193.91,200.31 -195.65,204.42 -197.39,207.37 -199.13,208.33 -200.87,208.47 -202.61,208.47 -204.34,208.47 -206.08,208.46 -207.82,208.42 -209.56,208.33 -211.3,208.2 -213.04,208.1 -214.78,207.95 -216.52,207.54 -218.25,205.46 -219.99,201.47 -221.73,203.69 -223.47,206.27 -225.21,206.74 -226.95,205.45 -228.69,205.44 -230.43,207.04 -232.16,206.96 -233.9,204.27 -235.64,200.35 -237.38,204.44 -239.12,207.37 -240.86,208.33 -242.6,208.47 -244.34,208.47 -246.07,208.47 -247.81,208.46 -249.55,208.42 -251.29,208.26 -253.03,208.22 -254.77,208.2 -256.51,208.19 -258.25,208.08 -259.98,207.87 -261.72,207.96 -263.46,208.04 -265.2,208 -266.94,208.02 -268.68,208.08 -270.42,208.1 -272.16,208.09 -273.9,208.1 -275.63,208.15 -277.37,208.24 -279.11,208.31 -280.85,208.4 -282.59,208.45 -284.33,208.45 -286.07,208.44 -287.81,208.44 -289.54,208.41 -291.28,208.35 -293.02,208.26 -294.76,208.22 -296.5,208.21 -298.24,208.19 -299.98,208.08 -301.72,207.87 -303.45,207.96 -305.19,208.04 -306.93,208 -308.67,208.02 -310.41,208.08 -312.15,208.1 -313.89,208.1 -315.63,208.1 -317.36,208.15 -319.1,208.24 -320.84,208.31 -322.58,208.4 -324.32,208.45 -326.06,208.45 -327.8,208.44 -329.54,208.44 -331.27,208.42 -333.01,208.35 -334.75,208.33 -336.49,208.21 -338.23,208.11 -339.97,207.96 -341.71,207.55 -343.45,205.5 -345.19,201.56 -346.92,203.75 -348.66,206.29 -350.4,206.76 -352.14,205.49 -353.88,205.48 -355.62,207.06 -357.36,206.98 -359.1,204.33 -360.83,200.44 -362.57,204.49 -364.31,207.39 -366.05,208.33 -367.79,208.47 -369.53,208.47 -371.27,208.47 -373.01,208.46 -374.74,208.42 -374.74,208.22 -373.01,208.37 "
         style="fill:#8f97fe;stroke:none;stroke-width:0;stroke-linecap:butt"
         id="polygon70" />
      <polyline
         points="-374.74,208.34 -373.01,208.42 -371.27,208.44 -369.53,208.45 -367.79,208.44 -366.05,208.12 -364.31,205.88 -362.57,199.01 -360.83,189.44 -359.10,198.63 -357.36,204.91 -355.62,205.10 -353.88,201.35 -352.14,201.39 -350.40,204.40 -348.66,203.29 -346.92,197.28 -345.19,192.08 -343.45,201.41 -341.71,206.28 -339.97,207.24 -338.23,207.59 -336.49,207.83 -334.75,208.12 -333.01,208.17 -331.27,208.32 -329.54,208.37 -327.80,208.39 -326.06,208.41 -324.32,208.40 -322.58,208.28 -320.84,208.07 -319.10,207.89 -317.36,207.69 -315.63,207.56 -313.89,207.55 -312.15,207.57 -310.41,207.51 -308.67,207.38 -306.93,207.32 -305.19,207.43 -303.45,207.23 -301.72,207.02 -299.98,207.52 -298.24,207.78 -296.50,207.81 -294.76,207.84 -293.02,207.94 -291.28,208.17 -289.54,208.32 -287.81,208.37 -286.07,208.39 -284.33,208.41 -282.59,208.40 -280.85,208.28 -279.11,208.07 -277.37,207.89 -275.63,207.68 -273.90,207.56 -272.16,207.55 -270.42,207.56 -268.68,207.51 -266.94,207.38 -265.20,207.32 -263.46,207.42 -261.72,207.22 -259.98,207.02 -258.25,207.52 -256.51,207.77 -254.77,207.81 -253.03,207.84 -251.29,207.93 -249.55,208.34 -247.81,208.42 -246.07,208.44 -244.34,208.45 -242.60,208.44 -240.86,208.11 -239.12,205.85 -237.38,198.90 -235.64,189.20 -233.90,198.51 -232.16,204.87 -230.43,205.06 -228.69,201.26 -226.95,201.30 -225.21,204.35 -223.47,203.23 -221.73,197.14 -219.99,191.87 -218.25,201.32 -216.52,206.25 -214.78,207.22 -213.04,207.58 -211.30,207.82 -209.56,208.12 -207.82,208.34 -206.08,208.42 -204.34,208.44 -202.61,208.45 -200.87,208.44 -199.13,208.11 -197.39,205.84 -195.65,198.86 -193.91,189.12 -192.17,198.47 -190.43,204.85 -188.69,205.05 -186.96,201.24 -185.22,201.27 -183.48,204.33 -181.74,203.20 -180.00,197.09 -178.26,191.80 -176.52,201.29 -174.78,206.24 -173.05,207.22 -171.31,207.58 -169.57,207.81 -167.83,208.12 -166.09,208.34 -164.35,208.42 -162.61,208.44 -160.87,208.45 -159.14,208.44 -157.40,208.11 -155.66,205.83 -153.92,198.82 -152.18,189.04 -150.44,198.43 -148.70,204.84 -146.96,205.03 -145.23,201.21 -143.49,201.24 -141.75,204.31 -140.01,203.18 -138.27,197.04 -136.53,191.74 -134.79,201.26 -133.05,206.23 -131.32,207.21 -129.58,207.57 -127.84,207.81 -126.10,208.12 -124.36,208.33 -122.62,208.42 -120.88,208.44 -119.14,208.45 -117.40,208.44 -115.67,208.11 -113.93,205.82 -112.19,198.78 -110.45,188.96 -108.71,198.39 -106.97,204.82 -105.23,205.02 -103.49,201.17 -101.76,201.21 -100.02,204.30 -98.28,203.16 -96.54,196.99 -94.80,191.67 -93.06,201.23 -91.32,206.22 -89.58,207.21 -87.85,207.57 -86.11,207.81 -84.37,208.11 -82.63,208.33 -80.89,208.42 -79.15,208.44 -77.41,208.45 -75.67,208.44 -73.94,208.11 -72.20,205.81 -70.46,198.74 -68.72,188.88 -66.98,198.34 -65.24,204.81 -63.50,205.00 -61.76,201.14 -60.03,201.18 -58.29,204.28 -56.55,203.14 -54.81,196.95 -53.07,191.60 -51.33,201.20 -49.59,206.21 -47.85,207.20 -46.11,207.57 -44.38,207.81 -42.64,208.11 -40.90,208.16 -39.16,208.31 -37.42,208.37 -35.68,208.38 -33.94,208.41 -32.20,208.40 -30.47,208.28 -28.73,208.06 -26.99,207.88 -25.25,207.66 -23.51,207.54 -21.77,207.52 -20.03,207.54 -18.29,207.48 -16.56,207.35 -14.82,207.29 -13.08,207.40 -11.34,207.19 -9.60,206.98 -7.86,207.50 -6.12,207.76 -4.38,207.79 -2.65,207.83 -0.91,207.92 0.83,208.16 2.57,208.31 4.31,208.37 6.05,208.38 7.79,208.41 9.53,208.40 11.26,208.28 13.00,208.06 14.74,207.87 16.48,207.66 18.22,207.53 19.96,207.52 21.70,207.54 23.44,207.48 25.18,207.34 26.91,207.28 28.65,207.39 30.39,207.18 32.13,206.97 33.87,207.49 35.61,207.75 37.35,207.79 39.09,207.82 40.82,207.92 "
         style="stroke:#446ffc;stroke-width:1.07;stroke-linecap:butt"
         id="polyline70" />
      <polyline
         points="-833.78,208.35 -832.04,208.44 -830.31,208.47 -828.57,208.47 -826.83,208.46 -825.09,208.20 -823.35,205.86 -821.61,199.66 -819.87,189.41 -818.13,199.58 -816.39,205.56 -814.66,205.55 -812.92,202.36 -811.18,202.79 -809.44,205.23 -807.70,204.07 -805.96,198.64 -804.22,192.76 -802.48,202.32 -800.75,206.70 -799.01,207.57 -797.27,207.83 -795.53,208.05 -793.79,208.30 -792.05,208.45 -790.31,208.45 -788.57,208.43 -786.84,208.47 -785.10,208.47 -783.36,208.09 -781.62,205.75 -779.88,199.47 -778.14,190.36 -776.40,198.84 -774.66,205.56 -772.93,205.51 -771.19,202.39 -769.45,202.62 -767.71,204.74 -765.97,204.17 -764.23,198.67 -762.49,193.89 -760.75,201.96 -759.02,206.73 -757.28,207.79 -755.54,207.94 -753.80,208.05 -752.06,208.27 -750.32,208.42 -748.58,208.43 -746.84,208.45 -745.10,208.45 -743.37,208.47 -741.63,208.13 -739.89,205.98 -738.15,199.32 -736.41,189.93 -734.67,199.73 -732.93,205.18 -731.19,205.86 -729.46,202.37 -727.72,202.35 -725.98,205.16 -724.24,204.13 -722.50,199.23 -720.76,193.47 -719.02,202.23 -717.28,206.44 -715.55,207.63 -713.81,208.04 -712.07,208.00 -710.33,208.19 -708.59,208.38 -706.85,208.47 -705.11,208.42 -703.37,208.45 -701.64,208.46 -699.90,208.16 -698.16,205.64 -696.42,199.09 -694.68,189.83 -692.94,197.89 -691.20,205.37 -689.46,205.88 -687.73,202.25 -685.99,202.21 -684.25,204.51 -682.51,203.60 -680.77,198.91 -679.03,194.54 -677.29,202.66 -675.55,206.26 -673.81,207.51 -672.08,207.75 -670.34,207.94 -668.60,208.11 -666.86,208.38 -665.12,208.37 -663.38,208.42 -661.64,208.45 -659.90,208.43 -658.17,208.21 -656.43,206.00 -654.69,199.64 -652.95,190.32 -651.21,199.31 -649.47,205.42 -647.73,205.75 -645.99,201.83 -644.26,202.09 -642.52,204.49 -640.78,203.81 -639.04,199.29 -637.30,195.38 -635.56,203.30 -633.82,206.55 -632.08,207.22 -630.35,207.48 -628.61,207.97 -626.87,208.12 -625.13,208.21 -623.39,208.33 -621.65,208.45 -619.91,208.43 -618.17,208.47 -616.44,208.40 -614.70,208.10 -612.96,207.86 -611.22,207.85 -609.48,207.74 -607.74,207.77 -606.00,207.63 -604.26,207.48 -602.52,207.79 -600.79,207.65 -599.05,207.51 -597.31,207.72 -595.57,207.58 -593.83,207.43 -592.09,207.79 -590.35,207.68 -588.61,207.87 -586.88,208.05 -585.14,207.99 -583.40,208.28 -581.66,208.42 -579.92,208.40 -578.18,208.40 -576.44,208.46 -574.70,208.45 -572.97,208.36 -571.23,208.16 -569.49,207.70 -567.75,203.07 -566.01,201.91 -564.27,206.54 -562.53,207.15 -560.79,207.77 -559.06,207.82 -557.32,207.39 -555.58,207.65 -553.84,207.66 -552.10,207.61 -550.36,207.90 -548.62,208.10 -546.88,208.04 -545.15,208.12 -543.41,208.33 -541.67,208.35 -539.93,208.46 -538.19,208.45 -536.45,208.47 -534.71,208.47 -532.97,208.20 -531.23,205.96 -529.50,199.86 -527.76,191.89 -526.02,197.46 -524.28,204.99 -522.54,205.91 -520.80,203.08 -519.06,203.34 -517.32,205.78 -515.59,204.76 -513.85,199.45 -512.11,192.85 -510.37,202.50 -508.63,206.78 -506.89,207.75 -505.15,207.91 -503.41,208.09 -501.68,208.27 -499.94,208.41 -498.20,208.44 -496.46,208.47 -494.72,208.47 -492.98,208.43 -491.24,208.15 -489.50,205.68 -487.77,199.96 -486.03,188.33 -484.29,199.24 -482.55,205.31 -480.81,205.77 -479.07,202.39 -477.33,202.50 -475.59,205.51 -473.85,204.38 -472.12,198.52 -470.38,193.30 -468.64,202.33 -466.90,206.42 -465.16,206.34 -463.42,207.42 -461.68,207.72 -459.94,207.76 -458.21,208.05 -456.47,207.66 -454.73,208.16 -452.99,208.47 -451.25,208.46 -449.51,208.17 -447.77,206.14 -446.03,199.37 -444.30,189.98 -442.56,199.24 -440.82,204.96 -439.08,205.85 -437.34,201.76 -435.60,201.93 -433.86,204.60 -432.12,203.70 -430.39,198.93 -428.65,193.41 -426.91,201.76 -425.17,206.37 -423.43,207.50 -421.69,207.75 -419.95,208.12 -418.21,208.19 -416.48,208.36 -414.74,208.42 -413.00,208.47 -411.26,208.47 -409.52,208.47 -407.78,208.20 -406.04,205.64 -404.30,199.56 -402.56,190.28 -400.83,198.59 -399.09,205.09 -397.35,205.40 -395.61,202.08 -393.87,202.30 -392.13,204.60 -390.39,203.49 -388.65,198.53 -386.92,192.34 -385.18,202.62 -383.44,206.82 -381.70,207.84 -379.96,207.93 -378.22,207.95 -376.48,208.12 "
         style="stroke-width:1.07;stroke-linecap:butt"
         id="polyline71" />
    </g>
    <g
       clip-path="url(#cpNDIuNTZ8MzM0LjY4fDUuNDh8MjA4LjQ4)"
       id="g72" />
    <g
       clip-path="url(#cpMC4wMHwzNDAuMTZ8MC4wMHwyMjYuNzc=)"
       id="g87">
      <text
         x="37.630001"
         y="46.419998"
         text-anchor="end"
         style="font-size:8.8px;font-family:'Liberation Sans';fill:#4d4d4d"
         textLength="19.559999"
         lengthAdjust="spacingAndGlyphs"
         id="text72">2000</text>
      <text
         x="37.630001"
         y="33.580002"
         text-anchor="end"
         style="font-size:8.8px;font-family:'Liberation Sans';fill:#4d4d4d"
         textLength="19.559999"
         lengthAdjust="spacingAndGlyphs"
         id="text73">4000</text>
      <text
         x="37.630001"
         y="20.74"
         text-anchor="end"
         style="font-size:8.8px;font-family:'Liberation Sans';fill:#4d4d4d"
         textLength="19.559999"
         lengthAdjust="spacingAndGlyphs"
         id="text74">6000</text>
      <text
         x="37.630001"
         y="97.169998"
         text-anchor="end"
         style="font-size:8.8px;font-family:'Liberation Sans';fill:#4d4d4d"
         textLength="19.559999"
         lengthAdjust="spacingAndGlyphs"
         id="text75">2000</text>
      <text
         x="37.630001"
         y="84.330002"
         text-anchor="end"
         style="font-size:8.8px;font-family:'Liberation Sans';fill:#4d4d4d"
         textLength="19.559999"
         lengthAdjust="spacingAndGlyphs"
         id="text76">4000</text>
      <text
         x="37.630001"
         y="71.489998"
         text-anchor="end"
         style="font-size:8.8px;font-family:'Liberation Sans';fill:#4d4d4d"
         textLength="19.559999"
         lengthAdjust="spacingAndGlyphs"
         id="text77">6000</text>
      <text
         x="37.630001"
         y="147.92"
         text-anchor="end"
         style="font-size:8.8px;font-family:'Liberation Sans';fill:#4d4d4d"
         textLength="19.559999"
         lengthAdjust="spacingAndGlyphs"
         id="text78">2000</text>
      <text
         x="37.630001"
         y="135.08"
         text-anchor="end"
         style="font-size:8.8px;font-family:'Liberation Sans';fill:#4d4d4d"
         textLength="19.559999"
         lengthAdjust="spacingAndGlyphs"
         id="text79">4000</text>
      <text
         x="37.630001"
         y="122.24"
         text-anchor="end"
         style="font-size:8.8px;font-family:'Liberation Sans';fill:#4d4d4d"
         textLength="19.559999"
         lengthAdjust="spacingAndGlyphs"
         id="text80">6000</text>
      <text
         x="84.290001"
         y="219.46001"
         text-anchor="middle"
         style="font-size:8.8px;font-family:'Liberation Sans';fill:#4d4d4d"
         textLength="27.360001"
         lengthAdjust="spacingAndGlyphs"
         id="text84"
         transform="translate(0,-52.5)">Mar 17</text>
      <text
         x="167.75999"
         y="219.46001"
         text-anchor="middle"
         style="font-size:8.8px;font-family:'Liberation Sans';fill:#4d4d4d"
         textLength="27.360001"
         lengthAdjust="spacingAndGlyphs"
         id="text85"
         transform="translate(0,-52.5)">Mar 19</text>
      <text
         x="251.22"
         y="219.46001"
         text-anchor="middle"
         style="font-size:8.8px;font-family:'Liberation Sans';fill:#4d4d4d"
         textLength="27.360001"
         lengthAdjust="spacingAndGlyphs"
         id="text86"
         transform="translate(0,-52.5)">Mar 21</text>
      <text
         transform="rotate(-90,47.666826,34.616826)"
         text-anchor="middle"
         style="font-size:11px;font-family:'Liberation Sans'"
         textLength="116.25"
         lengthAdjust="spacingAndGlyphs"
         id="text87">Hourly pedestrian count</text>
    </g>
  </g>
</svg>
