<?xml version="1.0" encoding="UTF-8" standalone="no"?>
<svg
   width="227.55859pt"
   height="278.08203pt"
   viewBox="0 0 227.55859 278.08203"
   version="1.1"
   id="svg47"
   sodipodi:docname="sf.svg"
   inkscape:version="1.2.2 (b0a8486541, 2022-12-01)"
   xmlns:inkscape="http://www.inkscape.org/namespaces/inkscape"
   xmlns:sodipodi="http://sodipodi.sourceforge.net/DTD/sodipodi-0.dtd"
   xmlns="http://www.w3.org/2000/svg"
   xmlns:svg="http://www.w3.org/2000/svg">
  <sodipodi:namedview
     id="namedview49"
     pagecolor="#ffffff"
     bordercolor="#000000"
     borderopacity="0.25"
     inkscape:showpageshadow="2"
     inkscape:pageopacity="0.0"
     inkscape:pagecheckerboard="0"
     inkscape:deskcolor="#d1d1d1"
     inkscape:document-units="pt"
     showgrid="false"
     inkscape:zoom="2.3447328"
     inkscape:cx="60.561271"
     inkscape:cy="185.30896"
     inkscape:window-width="1860"
     inkscape:window-height="1172"
     inkscape:window-x="0"
     inkscape:window-y="0"
     inkscape:window-maximized="1"
     inkscape:current-layer="svg47" />
  <defs
     id="defs5">
    <clipPath
       id="clip-0">
      <path
         clip-rule="nonzero"
         d="M 59.039062,59.039062 H 545.75781 V 358.55859 H 59.039062 Z m 0,0"
         id="path2" />
    </clipPath>
  </defs>
  <path
     d="M 227.18359,69.707025 V 208.375 L 113.77734,277.70704 0.37500187,208.375 V 69.707025 L 113.77734,0.37499457 Z"
     style="fill:#ffffff;fill-opacity:1;fill-rule:evenodd;stroke:none;stroke-width:0.75;stroke-linecap:round;stroke-linejoin:round;stroke-miterlimit:10;stroke-opacity:1"
     id="path409" />
  <path
     fill="none"
     stroke-width="0.75"
     stroke-linecap="round"
     stroke-linejoin="round"
     stroke="#6b6b6b"
     stroke-opacity="1"
     stroke-miterlimit="10"
     d="M 37.08594,230.82031 V 47.265628"
     id="path13" />
  <path
     fill="none"
     stroke-width="0.75"
     stroke-linecap="round"
     stroke-linejoin="round"
     stroke="#6b6b6b"
     stroke-opacity="1"
     stroke-miterlimit="10"
     d="M 75.4336,254.26563 V 23.820313"
     id="path15" />
  <path
     fill="none"
     stroke-width="0.75"
     stroke-linecap="round"
     stroke-linejoin="round"
     stroke="#6b6b6b"
     stroke-opacity="1"
     stroke-miterlimit="10"
     d="M 113.77735,277.70703 V 0.375"
     id="path17" />
  <path
     fill="none"
     stroke-width="0.75"
     stroke-linecap="round"
     stroke-linejoin="round"
     stroke="#6b6b6b"
     stroke-opacity="1"
     stroke-miterlimit="10"
     d="M 152.125,254.26563 V 23.820313"
     id="path19" />
  <path
     fill="none"
     stroke-width="0.75"
     stroke-linecap="round"
     stroke-linejoin="round"
     stroke="#6b6b6b"
     stroke-opacity="1"
     stroke-miterlimit="10"
     d="M 190.47266,230.82031 V 47.265628"
     id="path21" />
  <path
     fill="none"
     stroke-width="0.75"
     stroke-linecap="round"
     stroke-linejoin="round"
     stroke="#6b6b6b"
     stroke-opacity="1"
     stroke-miterlimit="10"
     d="m 106.49219,273.25391 h 14.57422"
     id="path23" />
  <path
     fill="none"
     stroke-width="0.75"
     stroke-linecap="round"
     stroke-linejoin="round"
     stroke="#6b6b6b"
     stroke-opacity="1"
     stroke-miterlimit="10"
     d="M 33.32032,228.51563 H 194.23828"
     id="path25" />
  <path
     fill="none"
     stroke-width="0.75"
     stroke-linecap="round"
     stroke-linejoin="round"
     stroke="#6b6b6b"
     stroke-opacity="1"
     stroke-miterlimit="10"
     d="M 0.375,183.78125 H 227.1836"
     id="path27" />
  <path
     fill="none"
     stroke-width="0.75"
     stroke-linecap="round"
     stroke-linejoin="round"
     stroke="#6b6b6b"
     stroke-opacity="1"
     stroke-miterlimit="10"
     d="M 0.375,139.04297 H 227.1836"
     id="path29" />
  <path
     fill="none"
     stroke-width="0.75"
     stroke-linecap="round"
     stroke-linejoin="round"
     stroke="#6b6b6b"
     stroke-opacity="1"
     stroke-miterlimit="10"
     d="M 0.375,94.30469 H 227.1836"
     id="path31" />
  <path
     fill="none"
     stroke-width="0.75"
     stroke-linecap="round"
     stroke-linejoin="round"
     stroke="#6b6b6b"
     stroke-opacity="1"
     stroke-miterlimit="10"
     d="M 33.32032,49.566408 H 194.23828"
     id="path33" />
  <path
     fill="none"
     stroke-width="0.75"
     stroke-linecap="round"
     stroke-linejoin="round"
     stroke="#6b6b6b"
     stroke-opacity="1"
     stroke-miterlimit="10"
     d="m 106.49219,4.832032 h 14.57422"
     id="path35" />
  <path
     fill-rule="evenodd"
     fill="#bebebe"
     fill-opacity="1"
     stroke-width="0.75"
     stroke-linecap="round"
     stroke-linejoin="round"
     stroke="#000000"
     stroke-opacity="1"
     stroke-miterlimit="10"
     d="M 227.1836,69.707028 V 208.375 L 113.77735,277.70703 0.375,208.375 V 69.707028 L 113.77735,0.375 Z m -9.07422,5.54688 V 202.82813 L 113.77735,266.61719 9.44922,202.82813 V 75.253908 L 113.77735,11.46875 Z"
     id="path37"
     sodipodi:nodetypes="cccccccccccccc" />
  <path
     fill-rule="evenodd"
     fill="#0000b3"
     fill-opacity="1"
     stroke-width="0.75"
     stroke-linecap="round"
     stroke-linejoin="round"
     stroke="#000000"
     stroke-opacity="1"
     stroke-miterlimit="10"
     d="m 103.89844,191.7461 0.28516,-0.10157 0.97656,-0.5664 0.77344,-0.69532 3.92968,-6.67578 3.27344,-10.05078 2.57813,-11.33203 2,-10.46484 0.008,-0.043 1.42187,-6.9336 0.0156,-0.0781 1.625,-7.04297 0.0117,-0.0469 1.96484,-7.97657 0.004,-0.0117 1.125,-4.47656 h -7.38281 l -0.39844,-0.004 -0.31641,-0.0117 -0.3164,-0.0195 -0.34766,-0.0273 -0.31641,-0.0312 -0.3125,-0.0391 -0.30859,-0.0547 -0.30469,-0.0625 -0.30078,-0.0742 -0.29297,-0.082 -0.25,-0.0781 -0.30469,-0.0977 -0.29687,-0.11328 -0.28906,-0.12109 -0.27735,-0.13282 -0.26953,-0.14453 -0.25781,-0.15234 -0.24609,-0.16016 -0.23438,-0.17187 -0.21875,-0.17969 -0.20703,-0.1875 -0.19141,-0.19141 -0.17578,-0.20312 -0.16406,-0.20703 -0.14453,-0.21485 -0.0937,-0.14453 -0.12891,-0.21875 -0.10937,-0.21875 -0.0977,-0.22656 -0.0781,-0.22656 -0.0586,-0.23047 -0.0469,-0.23047 -0.0234,-0.23438 -0.0117,-0.23437 0.008,-0.23438 0.0274,-0.23046 0.043,-0.23438 0.0898,-0.39062 0.0781,-0.28907 0.20704,-0.64453 0.0391,-0.11328 0.24219,-0.66797 0.0508,-0.13281 0.1914,-0.46484 0.125,-0.27344 0.15235,-0.26563 0.46093,-0.75 0.14063,-0.21093 0.15234,-0.20313 0.17188,-0.19922 0.18359,-0.1914 0.19531,-0.1875 0.21094,-0.17579 0.22656,-0.17187 0.92188,-0.66406 0.23437,-0.16016 0.24219,-0.15234 0.25781,-0.14063 0.26172,-0.13281 0.27735,-0.125 0.28125,-0.11328 0.29297,-0.10156 1.5,-0.5 0.33203,-0.10157 0.33984,-0.0898 0.34375,-0.0742 0.35156,-0.0625 0.35547,-0.0469 2.20313,-0.25 0.35937,-0.0312 0.36719,-0.0195 5.99609,-0.1914 1.19532,-0.0391 1.60546,-4.6836 0.125,-0.3125 3.29297,-7.23047 0.10938,-0.22656 0.1289,-0.21875 3.8711,-6.15625 0.15625,-0.22656 0.17187,-0.22266 0.1875,-0.21094 4.46875,-4.738282 0.1836,-0.18359 0.19531,-0.17578 0.20703,-0.17188 0.22266,-0.16406 0.23047,-0.15234 6.14843,-3.90235 0.23438,-0.14453 0.24219,-0.13281 0.2539,-0.125 0.26172,-0.11328 0.26953,-0.10938 6.64063,-2.50781 0.27734,-0.0977 0.28516,-0.0898 0.28906,-0.0781 0.29687,-0.0703 6.19922,-1.33593 0.375,-0.0742 0.37891,-0.0547 0.38672,-0.0391 4.8164,-0.39844 0.3086,-0.0195 0.3125,-0.008 h 0.3125 l 0.30859,0.0117 0.3086,0.0234 8.71093,0.77344 0.3125,0.0352 0.3125,0.043 0.3086,0.0547 0.30468,0.0664 0.30079,0.0781 0.29296,0.0859 6.57813,2.08594 0.3125,0.10937 0.30469,0.11719 0.29687,0.12891 0.28125,0.14062 0.27344,0.15235 0.26172,0.16406 0.24609,0.16797 4.16016,3.04297 0.23437,0.17968 0.22266,0.19141 0.20312,0.19531 0.1875,0.20703 0.17579,0.21094 0.15625,0.21875 0.13671,0.22656 0.1211,0.22657 0.10156,0.23437 1.45313,3.636722 0.0781,0.22266 0.0664,0.22265 0.0469,0.22656 0.0274,0.22657 0.0156,0.22656 -0.004,0.23047 -0.0195,0.22656 -0.0351,0.22656 -0.0508,0.22657 -0.3125,1.15625 -0.0703,0.22265 -0.082,0.21875 -0.10156,0.21875 -0.11719,0.21094 -0.1289,0.20703 -0.14454,0.20313 -1.09765,1.43359 -0.17578,0.21875 -0.19532,0.21094 -0.21093,0.19922 -0.22657,0.19531 -0.24218,0.18359 -0.25782,0.17578 -0.26953,0.16407 -2.11718,1.21875 -0.26563,0.14453 -0.27734,0.13281 -0.28516,0.125 -0.29297,0.11328 -0.30469,0.10156 -0.30859,0.0937 -0.31641,0.0781 -0.32031,0.0664 -0.32812,0.0586 -3.37891,0.51562 -0.33984,0.043 -0.34375,0.0312 -0.34766,0.0195 -0.34375,0.008 -0.34766,-0.008 -0.34375,-0.0195 -0.34375,-0.0352 -0.34375,-0.0469 -3.83593,-0.59766 -0.3125,-0.0547 -0.3086,-0.0664 -0.30468,-0.0781 -0.29688,-0.0859 -0.28906,-0.0977 -0.28125,-0.10547 -0.27735,-0.11718 -0.26562,-0.12891 -0.25781,-0.13672 -0.2461,-0.14453 -2.47656,-1.52734 -0.25781,-0.17188 -0.24219,-0.17969 -0.23047,-0.1875 -0.21875,-0.19531 -0.19922,-0.20312 -0.17968,-0.21485 -0.16797,-0.21875 -1.45313,-2.05469 -0.14453,-0.21875 -0.12891,-0.22656 -0.10937,-0.22656 -0.0937,-0.23438 -0.69922,-1.96875 -0.0273,-0.0586 -0.29297,-0.0195 -1.07813,0.17187 -2.35156,0.97657 -3.0625,2.2539 -3.26562,4.1836 -1.38282,2.3789 -1.35547,2.78907 -1.20312,3.04687 -1.02734,3.35156 -0.48829,1.76563 -0.0312,0.11719 h 12.2461 l 0.35937,0.008 0.35547,0.0195 0.58203,0.0469 0.34375,0.0312 0.33985,0.0469 0.33593,0.0625 0.33204,0.0703 0.32421,0.0859 0.31641,0.0977 0.39453,0.1289 0.30078,0.10156 0.28907,0.11719 0.28125,0.125 0.26953,0.13672 0.26172,0.14453 0.25,0.15235 0.23828,0.16406 0.22656,0.17187 0.21094,0.17969 0.22265,0.20313 0.20313,0.1875 0.1875,0.19921 0.16797,0.20313 0.15625,0.21094 0.14062,0.21484 0.1211,0.21875 0.10937,0.22266 0.0859,0.23047 0.0742,0.23046 0.0703,0.25782 0.0586,0.24609 0.0352,0.24609 0.0195,0.25 -0.004,0.2461 -0.0195,0.25 -0.043,0.24609 -0.0586,0.24219 -0.14453,0.49219 -0.0312,0.10937 -0.3125,0.95703 -0.008,0.0234 -0.3125,0.93359 -0.004,0.008 -0.14453,0.42187 -0.0859,0.23047 -0.10547,0.22656 -0.12109,0.22266 -0.14063,0.21875 -0.15625,0.21094 -0.16796,0.20703 -0.1875,0.19922 -0.66407,0.66797 -0.1914,0.18359 -0.20313,0.17578 -0.21484,0.16797 -0.23047,0.16016 -0.23828,0.15234 -0.25391,0.14453 -0.25781,0.13672 -0.27344,0.125 -0.27734,0.11328 -1.22266,0.47656 -0.33594,0.1211 -0.34375,0.10937 -0.35156,0.0937 -0.35937,0.0781 -1.46094,0.28515 -0.35938,0.0625 -0.36718,0.0469 -0.36719,0.0352 -1.375,0.0937 -0.31641,0.0156 -0.3125,0.008 h -11.559 l -1.71094,6.44531 -0.0117,0.0469 -2.1875,7.80078 -0.008,0.0273 -2.22656,7.65625 v 0.0117 l -2.20703,7.51172 -0.008,0.0273 -4.72265,15.58203 -0.0586,0.17578 -4.02343,11.07031 -0.0703,0.17578 -0.0781,0.17188 -3.64844,7.44531 -0.12109,0.22656 -0.13672,0.21875 -0.15625,0.21485 -3.59766,4.70312 -0.15234,0.19141 -0.17188,0.1875 -0.17968,0.17968 -0.19532,0.17188 -0.20312,0.16797 -4.625,3.55859 -0.25781,0.19141 -0.27735,0.17578 -0.28906,0.16797 -0.30469,0.15234 -5.23437,2.5 -0.25781,0.11719 -0.26172,0.10547 -0.26953,0.0976 -0.27344,0.0899 -0.28125,0.0781 -5.57813,1.47266 -0.28906,0.0703 -0.29297,0.0625 -0.29687,0.0508 -0.30078,0.043 -0.30079,0.0312 -5.64453,0.48047 -0.33984,0.0234 -0.33984,0.0117 -0.33985,-0.004 -0.33984,-0.0156 -7.85547,-0.50391 -0.32422,-0.0273 -0.32031,-0.0352 -0.32031,-0.0508 -0.31641,-0.0625 -0.3125,-0.0703 -5.23047,-1.32813 -0.29297,-0.0781 -0.28906,-0.0937 -0.28125,-0.0977 -0.27344,-0.11328 -0.26562,-0.11719 -0.25782,-0.12891 -0.25,-0.13671 -0.23828,-0.14844 -2.91015,-1.8711 -0.25,-0.17187 -0.23438,-0.17578 -0.22265,-0.1875 -0.20313,-0.19531 -0.19141,-0.19922 -0.17578,-0.21094 -0.16015,-0.21484 -0.14063,-0.22266 -0.125,-0.22266 -0.10547,-0.23047 -0.90234,-2.14843 -0.0898,-0.23828 -0.0703,-0.24219 -0.0547,-0.24219 -0.0312,-0.24609 -0.0156,-0.2461 0.008,-0.24609 0.0234,-0.24609 0.0469,-0.24219 0.35937,-1.62891 0.0586,-0.21875 0.0703,-0.21875 0.0898,-0.21484 0.10156,-0.21485 0.1211,-0.20703 0.13281,-0.20312 0.14453,-0.19922 1.16406,-1.47266 0.17578,-0.20703 0.19141,-0.20312 0.20703,-0.19532 0.22266,-0.1875 0.23437,-0.17578 0.25,-0.17187 0.26172,-0.15625 0.27344,-0.14844 2.08203,-1.07031 0.26172,-0.125 0.26562,-0.11719 0.27735,-0.10937 0.28515,-0.0977 0.28907,-0.0859 0.29687,-0.0781 0.30078,-0.0703 0.3086,-0.0547 0.30859,-0.0469 3.12109,-0.41406 0.34375,-0.0352 0.35157,-0.0273 0.34765,-0.0117 H 89.914 l 0.34765,0.0156 0.34766,0.0273 0.34375,0.043 2.90234,0.40625 0.32813,0.0508 0.32422,0.0664 0.32031,0.0742 0.3125,0.0899 0.30859,0.0976 0.29688,0.10938 2.59765,1.02734 0.3086,0.13282 0.30468,0.14453 0.28516,0.15234 0.27734,0.16797 2.11719,1.35937 0.22656,0.15235 0.21875,0.16015 0.20313,0.16797 0.19141,0.17578 z m 0,0"
     id="path39" />
  <path
     fill-rule="evenodd"
     fill="#0000b3"
     fill-opacity="1"
     stroke-width="0.75"
     stroke-linecap="round"
     stroke-linejoin="round"
     stroke="#000000"
     stroke-opacity="1"
     stroke-miterlimit="10"
     d="m 54.9961,174.95703 -0.34375,-0.0508 -0.34375,-0.0664 -0.33594,-0.0781 -0.32813,-0.0898 -0.32421,-0.10547 -6.59375,-2.28125 -0.27735,-0.10156 -0.26953,-0.11329 -0.26172,-0.12109 -0.2539,-0.12891 -0.24219,-0.13671 -0.23438,-0.14454 -0.22265,-0.15625 -4.24219,-3.07031 -0.23047,-0.17187 -0.21484,-0.1836 -0.19922,-0.1875 -0.1836,-0.19922 -0.17187,-0.20312 -0.15625,-0.20703 -0.14063,-0.21485 -0.12109,-0.21875 -0.10547,-0.22656 -1.5039,-3.46094 -0.0859,-0.22265 -0.0703,-0.22266 -0.0547,-0.22656 -0.0391,-0.23047 -0.0195,-0.22656 -0.004,-0.23047 0.0117,-0.23047 0.0312,-0.22656 0.043,-0.22656 0.3125,-1.28907 0.0625,-0.22265 0.0781,-0.22266 0.0937,-0.22266 0.11328,-0.21484 0.12891,-0.21094 0.14062,-0.20703 1.07813,-1.46484 0.15234,-0.19922 0.16797,-0.19141 0.17969,-0.18359 0.19531,-0.17969 0.20703,-0.17187 0.21875,-0.16407 0.23047,-0.15625 0.24219,-0.14843 2.0625,-1.20313 0.26953,-0.14453 0.27734,-0.13672 0.28907,-0.1289 0.29687,-0.11719 0.30859,-0.10156 0.3125,-0.0937 0.32032,-0.082 0.32422,-0.0703 0.33203,-0.0547 3.27343,-0.5 0.32422,-0.043 0.33203,-0.0312 0.32813,-0.0195 0.33203,-0.008 0.33203,0.004 0.32813,0.0156 0.32812,0.0273 0.32813,0.043 0.32422,0.0508 3.55468,0.64062 0.33594,0.0703 0.32422,0.0781 0.32422,0.0898 0.3125,0.10547 0.30469,0.11328 0.29296,0.12891 0.28516,0.13672 0.27344,0.14844 0.26172,0.16015 2.55468,1.63281 0.23047,0.15235 0.21485,0.16015 0.20703,0.17188 0.19531,0.17578 0.17969,0.17969 0.16797,0.1914 0.15625,0.19532 1.63281,2.17968 0.13672,0.19532 0.125,0.19922 0.10937,0.20312 0.0937,0.20703 0.082,0.21094 0.7461,2.13281 0.0391,0.0937 1.44922,0.0664 4.26953,-0.35547 2.67188,-0.86328 1.45703,-1.25 0.7539,-2.64063 -0.16406,-0.98437 -0.91797,-1.6211 -2.38281,-2.1914 -5.18359,-2.99219 -7.41797,-4.14844 -0.2461,-0.14843 -0.23437,-0.15235 -0.22656,-0.16015 -0.21094,-0.17188 -4.88281,-4.09766 -0.20313,-0.18359 -0.19141,-0.1875 -0.17578,-0.19531 -0.16406,-0.19922 -0.14844,-0.20703 -2.66406,-4.00391 -0.125,-0.19922 -0.10937,-0.20312 -0.0977,-0.20703 -0.082,-0.21094 -0.0664,-0.21094 -0.0508,-0.21484 -0.8125,-3.88281 -0.0391,-0.22657 -0.0195,-0.22656 -0.008,-0.22656 0.0117,-0.22656 0.0273,-0.22657 0.043,-0.22265 0.0586,-0.22266 1.75391,-5.75781 0.0703,-0.21485 0.0898,-0.21484 0.10547,-0.20703 0.11719,-0.20703 0.13281,-0.19922 0.14453,-0.19531 0.16016,-0.19141 0.17187,-0.18359 5.03907,-5.10157 0.21093,-0.20312 0.22657,-0.19141 0.23828,-0.18359 0.25781,-0.17188 0.26562,-0.16406 0.28125,-0.15234 0.29297,-0.14063 8.00391,-3.64843 0.30469,-0.12891 0.3164,-0.11719 0.32422,-0.10937 0.33203,-0.0898 0.33985,-0.082 0.34375,-0.0664 0.35156,-0.0508 10.64453,-1.39453 0.31641,-0.0352 0.32031,-0.0273 0.32031,-0.0117 0.32422,-0.004 0.32031,0.0117 0.32032,0.0195 0.32031,0.0312 7.98828,0.94922 0.33203,0.043 0.32422,0.0586 0.32422,0.0703 0.3164,0.082 0.3086,0.0898 0.30078,0.10547 6.59375,2.42578 0.30078,0.11718 0.29297,0.12891 0.28125,0.14063 0.26953,0.15234 0.26172,0.16016 0.24219,0.17187 4.48437,3.28125 0.21094,0.16406 0.19922,0.17188 0.1914,0.17578 0.17579,0.18359 0.16015,0.19141 0.14844,0.19531 0.13672,0.19922 0.12109,0.20703 0.10547,0.20703 1.65234,3.52344 0.0937,0.21484 0.0781,0.22266 0.0586,0.22266 0.0469,0.22265 0.0273,0.22657 0.0117,0.22656 -0.004,0.22656 -0.0195,0.22656 -0.0351,0.22657 -0.3086,1.53125 -0.0508,0.22265 -0.0664,0.21875 -0.0859,0.21485 -0.0977,0.21093 -0.11328,0.21094 -0.12891,0.20313 -0.14062,0.19921 -1.05859,1.39063 -0.16016,0.19922 -0.17578,0.19531 -0.1875,0.1875 -0.20313,0.17969 -0.21484,0.17187 -0.22656,0.16407 -0.23828,0.15625 -0.25,0.14453 -0.26172,0.14062 -2.00782,1.00781 -0.26562,0.125 -0.26953,0.11719 -0.28125,0.10547 -0.28516,0.0977 -0.29687,0.0859 -0.29688,0.0742 -0.30469,0.0664 -0.30859,0.0547 -0.3125,0.043 -3.16797,0.39062 -0.34375,0.0352 -0.34765,0.0234 -0.34766,0.008 -0.34766,-0.004 -0.34765,-0.0156 -0.34375,-0.0312 -0.34375,-0.043 -0.33985,-0.0586 -3.22265,-0.60156 -0.3125,-0.0664 -0.3086,-0.0742 -0.30468,-0.0898 -0.29297,-0.0977 -0.28907,-0.10547 -0.28125,-0.1211 -0.26953,-0.1289 -0.26172,-0.13672 -0.2539,-0.14844 -2.52344,-1.55469 -0.25391,-0.16797 -0.24609,-0.17578 -0.22656,-0.1875 -0.21485,-0.19531 -0.19531,-0.19922 -0.18359,-0.21094 -1.74219,-2.1289 -0.15625,-0.20703 -0.14453,-0.21485 -0.125,-0.21484 -0.11328,-0.22266 -0.0937,-0.22656 -0.80078,-2.13672 -0.1836,-0.35937 -0.19531,-0.0508 -1.28125,-0.082 -2.61328,0.40235 -1.35547,0.78515 -1.02734,1.41016 -0.41407,1.98438 0.16797,1.01171 0.49219,0.8125 1.20313,1.01563 2.84765,1.55469 10.38672,5.47265 0.28906,0.16016 0.27344,0.17187 0.26172,0.1836 6.64844,4.96875 0.22656,0.17578 0.21094,0.1875 0.19531,0.19141 0.18359,0.19921 0.16407,0.20704 3.51562,4.63671 0.15625,0.21875 0.14063,0.22657 0.11718,0.23047 0.10547,0.23437 0.082,0.23828 0.0664,0.23828 1.02734,4.49219 0.043,0.23438 0.0274,0.23046 0.008,0.23438 -0.008,0.23437 -0.0234,0.23438 -0.043,0.23047 -0.0625,0.23047 -1.95313,6.51562 -0.0703,0.21485 -0.0898,0.21484 -0.10156,0.20703 -0.11719,0.20703 -0.13281,0.20313 -0.14454,0.19531 -0.16015,0.19141 -0.17578,0.18359 -0.1836,0.17969 -5.63672,5.15625 -0.21093,0.18359 -0.22657,0.17578 -0.23828,0.16797 -0.25,0.16016 -0.26172,0.14843 -0.27343,0.13672 -0.28516,0.12891 -0.29297,0.11719 -8.97265,3.39062 -0.28516,0.10156 -0.29297,0.0937 -0.29687,0.082 -0.30469,0.0703 -0.3086,0.0586 -0.3125,0.0469 -0.3125,0.0391 -11.97265,1.21875 -0.3086,0.0273 -0.30468,0.0156 -0.3086,0.004 h -2.72656 l -0.38672,-0.008 -0.38672,-0.0234 -0.38281,-0.043 z m 0,0"
     id="path41" />
  <path
     fill-rule="evenodd"
     fill="#0400ff"
     fill-opacity="1"
     stroke-width="2.25"
     stroke-linecap="round"
     stroke-linejoin="round"
     stroke="#bebebe"
     stroke-opacity="1"
     stroke-miterlimit="10"
     d="m 56.15625,170.5586 -6.59765,-2.28516 -4.2461,-3.07031 -1.5,-3.46485 0.3086,-1.28515 1.07812,-1.46485 2.0625,-1.20312 3.27344,-0.5 3.55859,0.64062 2.55469,1.63282 1.63281,2.17968 0.79688,2.28907 0.78515,1.71875 1.55469,1.04687 2.33594,0.52734 3.13672,0.14063 5.86719,-0.48438 4.92578,-1.59765 3.39062,-2.90625 1.26563,-4.42578 -0.37891,-2.26953 -1.55078,-2.73829 -3.35938,-3.09375 -5.79687,-3.34765 -7.45313,-4.16797 -4.88281,-4.09766 -2.66406,-4.0039 -0.8125,-3.88672 1.75391,-5.75781 5.03906,-5.10157 8.0039,-3.64843 10.64844,-1.39063 7.98828,0.94531 6.59375,2.42578 4.48047,3.28125 1.65625,3.52344 -0.30859,1.53516 -1.05469,1.39062 -2.01172,1.00782 -3.16797,0.39062 -3.22265,-0.60156 -2.52735,-1.5586 -1.73828,-2.13281 -0.87109,-2.32031 -0.8711,-1.70313 -1.71875,-1.14453 -2.47265,-0.64062 -3.11719,-0.20313 -5.08594,0.78516 -3.57031,2.0625 -2.10156,2.89453 -0.69141,3.29297 0.36719,2.23437 1.22266,2.00782 2.24218,1.89062 3.4375,1.87891 10.4336,5.49609 6.64843,4.96875 3.51563,4.63672 1.02734,4.49219 -1.95312,6.51562 -5.63281,5.15625 -8.97266,3.39063 -11.97266,1.21875 h -2.72656 z m 0,0"
     id="path43" />
  <path
     fill-rule="evenodd"
     fill="#0400ff"
     fill-opacity="1"
     stroke-width="2.25"
     stroke-linecap="round"
     stroke-linejoin="round"
     stroke="#bebebe"
     stroke-opacity="1"
     stroke-miterlimit="10"
     d="m 127.77735,120.77344 h -11.17969 l -0.39844,-0.004 -0.34765,-0.0273 -0.25,-0.0742 -0.0937,-0.14844 0.0898,-0.39062 0.20703,-0.64063 0.24219,-0.66797 0.1875,-0.46093 0.46484,-0.75 0.92188,-0.66797 1.5039,-0.4961 2.19922,-0.25 3,-0.0937 2.9961,-0.0977 3,-0.0937 3,-0.0977 2.72656,-7.95703 3.29297,-7.22656 3.87109,-6.15625 4.46484,-4.73828 6.14844,-3.902352 6.64063,-2.50781 6.19922,-1.33594 4.82031,-0.39453 8.70703,0.77344 6.58203,2.08594 4.16016,3.04297 1.44922,3.636712 -0.3125,1.16016 -1.09375,1.43359 -2.1211,1.21875 -3.3789,0.51563 -3.83985,-0.60156 -2.47656,-1.53125 -1.45313,-2.05469 -0.76953,-2.175782 -0.80078,-1.58985 -1.35937,-1.01562 -2.00782,-0.54297 -2.73828,-0.16016 -3.02343,0.48438 -3.97657,1.64844 -4.24609,3.128902 -3.83984,4.91797 -1.59375,2.73828 -1.47267,3.03518 -1.30469,3.29687 -1.08203,3.52344 -1,3.625 -0.49609,1.8125 -0.5,1.8125 h 19.98828 l 0.58203,0.0469 0.39453,0.1289 0.22656,0.19922 0.0703,0.26172 -0.14063,0.49219 -0.3125,0.95703 -0.3125,0.92969 -0.14453,0.42187 -0.66016,0.66797 -1.22265,0.47656 -1.46485,0.28516 -1.375,0.0937 h -16.90234 l -0.13672,0.54297 -0.13672,0.53906 -0.13672,0.54297 -0.13672,0.53906 -2.10156,7.94141 -2.1914,7.80078 -2.22266,7.65625 -2.20703,7.51562 -4.72266,15.57813 -4.02344,11.07422 -3.64843,7.44531 -3.59766,4.70313 -4.62109,3.55859 -5.23828,2.5 -5.57813,1.47266 -5.64453,0.48046 -7.85156,-0.5 -5.23047,-1.32812 -2.91406,-1.875 -0.90625,-2.14844 0.36328,-1.625 1.16015,-1.47265 2.08203,-1.07032 3.1211,-0.41015 2.90234,0.40625 2.59375,1.02343 2.1211,1.35938 1.46875,1.41016 0.8125,0.80078 0.91406,0.64453 1.1875,0.43359 1.6289,0.15625 2.14844,-0.27734 2.21485,-0.77344 2.07812,-1.20312 1.73828,-1.5625 4.46485,-7.58985 3.4414,-10.55469 2.6211,-11.53515 2.01171,-10.51953 1.41797,-6.9375 1.625,-7.04297 1.96485,-7.97266 2.4414,-9.72656 z m 0,0"
     id="path45" />
</svg>
