<?xml version="1.0" encoding="UTF-8" standalone="no"?>
<!-- Created with Inkscape (http://www.inkscape.org/) -->

<svg
   width="59.818626pc"
   height="38.689625pc"
   viewBox="0 0 253.23268 163.7864"
   version="1.1"
   id="svg5"
   inkscape:version="1.2.2 (b0a8486541, 2022-12-01)"
   sodipodi:docname="vectors-3.svg"
   xml:space="preserve"
   xmlns:inkscape="http://www.inkscape.org/namespaces/inkscape"
   xmlns:sodipodi="http://sodipodi.sourceforge.net/DTD/sodipodi-0.dtd"
   xmlns:xlink="http://www.w3.org/1999/xlink"
   xmlns="http://www.w3.org/2000/svg"
   xmlns:svg="http://www.w3.org/2000/svg"><sodipodi:namedview
     id="namedview7"
     pagecolor="#ffffff"
     bordercolor="#000000"
     borderopacity="0.25"
     inkscape:showpageshadow="2"
     inkscape:pageopacity="0.0"
     inkscape:pagecheckerboard="0"
     inkscape:deskcolor="#d1d1d1"
     inkscape:document-units="mm"
     showgrid="false"
     inkscape:zoom="0.48501305"
     inkscape:cx="142.26421"
     inkscape:cy="137.10971"
     inkscape:window-width="1860"
     inkscape:window-height="1172"
     inkscape:window-x="0"
     inkscape:window-y="0"
     inkscape:window-maximized="1"
     inkscape:current-layer="layer1" /><defs
     id="defs2"><linearGradient
       id="gradientFill-1"
       x1="0.7414425"
       x2="590.86261"
       y1="3.6658268"
       y2="593.78699"
       gradientUnits="userSpaceOnUse"
       spreadMethod="pad"
       gradientTransform="matrix(11.886937,0,0,7.9610169,-3647.6558,-3635.0126)"><stop
         offset="0"
         stop-color="rgb(203,206,208)"
         stop-opacity="1"
         id="stop1471" /><stop
         offset="1"
         stop-color="rgb(132,131,139)"
         stop-opacity="1"
         id="stop1473" /></linearGradient><linearGradient
       id="gradientFill-2"
       x1="301.02603"
       x2="703.0675"
       y1="151.4006"
       y2="553.44208"
       gradientUnits="userSpaceOnUse"
       spreadMethod="pad"
       gradientTransform="matrix(9.6301148,0,0,9.8266856,-3647.6558,-3635.0126)"><stop
         offset="0"
         stop-color="rgb(39,109,195)"
         stop-opacity="1"
         id="stop1476" /><stop
         offset="1"
         stop-color="rgb(22,92,170)"
         stop-opacity="1"
         id="stop1478" /></linearGradient><linearGradient
       id="gradient_1_"
       gradientUnits="userSpaceOnUse"
       x1="305.6709"
       y1="404.72559"
       x2="305.6709"
       y2="134.4175"
       gradientTransform="matrix(11.189455,0,0,11.189455,9471.0401,-4812.0946)"><stop
         offset="0"
         style="stop-color:#FFFFFF;stop-opacity:0"
         id="stop1" /><stop
         offset="1"
         style="stop-color:#FFFFFF"
         id="stop2" /></linearGradient><linearGradient
       id="gradient_1_-6"
       gradientUnits="userSpaceOnUse"
       x1="305.6709"
       y1="404.72559"
       x2="305.6709"
       y2="134.4175"
       gradientTransform="matrix(0.13805403,0,0,0.13805403,1139.4404,55.081607)"><stop
         offset="0"
         style="stop-color:#FFFFFF;stop-opacity:0"
         id="stop1-1" /><stop
         offset="1"
         style="stop-color:#FFFFFF"
         id="stop2-2" /></linearGradient><color-profile
       name="Artifex-CMYK-SWOP-Profile"
       xlink:href="file:///usr/share/color/icc/ghostscript/default_cmyk.icc"
       id="color-profile25000" /><linearGradient
       id="SVGID_1_"
       gradientUnits="userSpaceOnUse"
       x1="1255.8186"
       y1="1275.3508"
       x2="1260.2786"
       y2="-314.89069"
       gradientTransform="matrix(0.03350601,0,0,-0.03350601,1236.3517,-55.742492)">
		<stop
   offset="0"
   style="stop-color:#FFFFFF;stop-opacity:0.83"
   id="stop31" />
		<stop
   offset="0.56"
   style="stop-color:#FFFFFF;stop-opacity:0.37"
   id="stop32" />
		<stop
   offset="1"
   style="stop-color:#FFFFFF;stop-opacity:0"
   id="stop33" />
	</linearGradient><filter
       style="color-interpolation-filters:sRGB"
       inkscape:label="Blur"
       id="filter29"
       x="-0.051895853"
       y="-0.23825146"
       width="1.1037917"
       height="1.4765029"><feGaussianBlur
         stdDeviation="2 2"
         result="blur"
         id="feGaussianBlur29" /></filter><filter
       style="color-interpolation-filters:sRGB"
       inkscape:label="Blur"
       id="filter60"
       x="-0.038921889"
       y="-0.1786886"
       width="1.0778438"
       height="1.3573772"><feGaussianBlur
         stdDeviation="1.5 1.5"
         result="blur"
         id="feGaussianBlur60" /></filter><filter
       style="color-interpolation-filters:sRGB"
       inkscape:label="Blur"
       id="filter3"
       x="-0.0062359176"
       y="-0.0086967601"
       width="1.0124718"
       height="1.0173935"><feGaussianBlur
         stdDeviation="0.5 0.5"
         result="blur"
         id="feGaussianBlur3" /></filter><linearGradient
       id="gradient_1_-5"
       gradientUnits="userSpaceOnUse"
       x1="305.6709"
       y1="404.72559"
       x2="305.6709"
       y2="134.4175"
       gradientTransform="matrix(2.4466131,0,0,2.4466131,1285.4966,-1584.013)"><stop
         offset="0"
         style="stop-color:#FFFFFF;stop-opacity:0"
         id="stop1-0" /><stop
         offset="1"
         style="stop-color:#FFFFFF"
         id="stop2-4" /></linearGradient><linearGradient
       id="gradient_1_-6-5"
       gradientUnits="userSpaceOnUse"
       x1="305.6709"
       y1="404.72559"
       x2="305.6709"
       y2="134.4175"
       gradientTransform="matrix(0.21353128,0,0,0.21353128,-308.54246,-151.50156)"><stop
         offset="0"
         style="stop-color:#FFFFFF;stop-opacity:0"
         id="stop1-1-0" /><stop
         offset="1"
         style="stop-color:#FFFFFF"
         id="stop2-2-9" /></linearGradient><linearGradient
       id="gradient_1_-63"
       gradientUnits="userSpaceOnUse"
       x1="305.6709"
       y1="404.72559"
       x2="305.6709"
       y2="134.4175"
       gradientTransform="matrix(17.306982,0,0,17.306982,-4744.1457,-10138.182)"><stop
         offset="0"
         style="stop-color:#FFFFFF;stop-opacity:0"
         id="stop1-8" /><stop
         offset="1"
         style="stop-color:#FFFFFF"
         id="stop2-5" /></linearGradient><linearGradient
       id="SVGID_1_-6"
       gradientUnits="userSpaceOnUse"
       x1="1255.8186"
       y1="1275.3508"
       x2="1260.2786"
       y2="-314.89069"
       gradientTransform="matrix(0.0518245,0,0,-0.0518245,85.529728,-380.51232)">
		<stop
   offset="0"
   style="stop-color:#FFFFFF;stop-opacity:0.83"
   id="stop31-1" />
		<stop
   offset="0.56"
   style="stop-color:#FFFFFF;stop-opacity:0.37"
   id="stop32-1" />
		<stop
   offset="1"
   style="stop-color:#FFFFFF;stop-opacity:0"
   id="stop33-5" />
	</linearGradient></defs><g
     inkscape:label="Layer 1"
     inkscape:groupmode="layer"
     id="layer1"
     transform="translate(-262.99235,-48.627364)"><g
       id="g3264"
       transform="matrix(0.03740308,0,0,0.03740308,460.23557,147.76079)"><polygon
         id="fill"
         fill="#e1f0fb"
         points="306,42.123 611.917,218.728 611.917,572.024 306,748.629 0.083,572.021 0.083,218.728 "
         transform="matrix(2.4466131,0,0,2.4466131,-0.20306889,-103.05868)"
         style="fill:#223069;fill-opacity:1" /><path
         id="gradient"
         opacity="0.2"
         fill="url(#gradient_1_)"
         d="M 747.45993,30.078666 144.68543,379.04155 c 90.4733,182.35831 326.1139,312.37623 602.5518,312.37623 277.28937,0 513.53187,-130.82041 603.38617,-314.06194 z"
         style="display:inline;fill:url(#gradient_1_-63);stroke-width:2.44661" /><path
         id="outline"
         fill="#ec6b00"
         d="M 1437.2311,397.65538 871.30263,70.893066 748.461,6.3887001e-6 625.61863,70.893066 59.690031,397.65538 3.11127e-5,432.08412 V 1296.4554 L 59.687631,1330.8817 632.54253,1661.725 l 115.9181,66.8219 115.9156,-66.8219 572.85487,-330.836 59.69,-34.4238 V 432.08412 Z m 0,866.41172 L 748.46063,1661.725 59.690031,1264.0671 V 468.55089 L 748.46063,70.893066 v 0 L 1437.2311,468.55089 Z"
         style="fill:#15173f;fill-opacity:1;stroke-width:2.44661"
         sodipodi:nodetypes="ccccccccccccccccccccccc" /><g
         id="g165"
         transform="matrix(2.1644723,0,0,2.1644723,-754.13623,59.09965)"><g
           id="g162"
           transform="translate(185.6056,-670.69811)"><path
             style="fill:none;stroke:#85e4ff;stroke-width:3;stroke-linejoin:round;stroke-dasharray:none;stroke-dashoffset:36.474;stroke-opacity:1"
             d="m 508.6037,939.81518 -300,181.00002 300,181 300,-181 z"
             id="path161"
             sodipodi:nodetypes="ccccc" /><path
             id="path162"
             style="fill:none;stroke:#85e4ff;stroke-width:3;stroke-linejoin:round;stroke-dasharray:none;stroke-dashoffset:36.474;stroke-opacity:1"
             d="M 220.78534,1120.8152 C 316.72479,1178.6876 412.66425,1236.56 508.6037,1294.4324 604.54315,1236.56 700.48261,1178.6876 796.42206,1120.8152 700.48261,1062.9428 604.54315,1005.0704 508.6037,947.19799 412.66425,1005.0704 316.72479,1062.9428 220.78534,1120.8152 Z" /></g><g
           id="g164"
           transform="translate(185.6056,-586.69811)"><path
             style="fill:none;stroke:#85e4ff;stroke-width:3;stroke-linejoin:round;stroke-dasharray:none;stroke-dashoffset:36.474;stroke-opacity:1"
             d="m 508.6037,939.81518 -300,181.00002 300,181 300,-181 z"
             id="path163"
             sodipodi:nodetypes="ccccc" /><path
             id="path164"
             style="fill:none;stroke:#85e4ff;stroke-width:3;stroke-linejoin:round;stroke-dasharray:none;stroke-dashoffset:36.474;stroke-opacity:1"
             d="M 220.78534,1120.8152 C 316.72479,1178.6876 412.66425,1236.56 508.6037,1294.4324 604.54315,1236.56 700.48261,1178.6876 796.42206,1120.8152 700.48261,1062.9428 604.54315,1005.0704 508.6037,947.19799 412.66425,1005.0704 316.72479,1062.9428 220.78534,1120.8152 Z" /></g></g><text
         xml:space="preserve"
         style="font-size:240px;font-family:Monospace;-inkscape-font-specification:Monospace;text-align:center;writing-mode:lr-tb;direction:ltr;text-anchor:middle;fill:#223069;fill-opacity:1;stroke:#85e4ff;stroke-width:6;stroke-linejoin:round;stroke-dasharray:none;stroke-dashoffset:36.474;stroke-opacity:1"
         x="1292.6611"
         y="143.06258"
         id="text165"
         transform="rotate(30.457068)"><tspan
           sodipodi:role="line"
           id="tspan165"
           x="1292.6611"
           y="143.06258">vec</tspan></text><text
         xml:space="preserve"
         style="font-size:240px;font-family:Monospace;-inkscape-font-specification:Monospace;text-align:center;writing-mode:lr-tb;direction:ltr;text-anchor:middle;fill:#223069;fill-opacity:1;stroke:#85e4ff;stroke-width:6;stroke-linejoin:round;stroke-dasharray:none;stroke-dashoffset:36.474;stroke-opacity:1"
         x="-21.779036"
         y="898.14148"
         id="text166"
         transform="rotate(-31.864139)"><tspan
           sodipodi:role="line"
           id="tspan166"
           x="-21.779036"
           y="898.14148">vec</tspan></text></g><g
       transform="matrix(0.26458385,0,0,0.26458385,394.44398,38.80465)"
       id="g14925"><use
         href="#image-f61c8c4f2d084d503e72c83de05b702575842e38"
         width="212"
         height="244"
         opacity="1"
         id="use14923" /></g><g
       transform="matrix(0.26458385,0,0,0.26458385,267.68774,31.528595)"
       id="g14929"><use
         href="#image-8fb2eea4d1d675d4674965a5dc4358d521000aef"
         width="209"
         height="242"
         opacity="1"
         id="use14927" /></g><g
       transform="matrix(0.26458385,0,0,0.26458385,460.29503,145.96111)"
       id="g14933"><use
         href="#image-2c82bf74741ccbaddba6a5843c0cecf1b37a2528"
         width="208"
         height="240"
         opacity="1"
         id="use14931" /></g><g
       transform="matrix(0.26458385,0,0,0.26458385,334.62745,139.9375)"
       id="g14937"><use
         href="#image-34db5719c612924e667dcc1ae2cf4dd30cbd1c54"
         width="209"
         height="242"
         opacity="1"
         id="use14935" /></g><g
       transform="matrix(0.26458385,0,0,0.26458385,365.07518,88.693052)"
       id="g14941"><use
         href="#image-a5af86754189f66209975259d494c5c743538402"
         width="210"
         height="243"
         opacity="1"
         id="use14939" /></g><g
       stroke-linecap="round"
       id="g15003"
       transform="matrix(0.2503435,0,0,0.2503435,276.8071,35.121881)"><g
         transform="translate(683.07779,238.5)"
         id="g14993"><path
           d="m -1.13,-0.15 c 13.7,14.11 58.94,51.85 82.23,84.69 23.29,32.84 47.67,93.37 57.51,112.35 M 0.47,-1.27 c 13.66,13.75 56.29,50.82 79.73,83.97 23.44,33.14 50.81,95.41 60.91,114.93"
           stroke="#1e1e1e"
           stroke-width="4"
           fill="none"
           id="path14991" /></g><g
         transform="translate(683.07779,238.5)"
         id="g14997"><path
           d="m 123.17,180.22 c 3.41,3.89 8.21,6.05 17.94,17.41 m -17.94,-17.41 c 4.16,4.33 7.44,6.46 17.94,17.41"
           stroke="#1e1e1e"
           stroke-width="4"
           fill="none"
           id="path14995" /></g><g
         transform="translate(683.07779,238.5)"
         id="g15001"><path
           d="m 138.55,172.76 c 0.26,5.27 1.93,8.95 2.56,24.87 m -2.56,-24.87 c 1.02,5.93 1.1,9.62 2.56,24.87"
           stroke="#1e1e1e"
           stroke-width="4"
           fill="none"
           id="path14999" /></g></g><g
       stroke-linecap="round"
       id="g15019"
       transform="matrix(0.26458385,0,0,0.26458385,265.0419,28.882756)"><g
         transform="translate(595.07779,397.92246)"
         id="g15009"><path
           d="m 0.33,1.05 c 14.62,8.41 63.79,32.94 86.6,48.82 22.8,15.88 41.63,38.85 50.25,46.47 M -0.96,0.56 c 14.53,8.6 63.46,34.84 86.9,50.48 23.44,15.63 44.87,35.73 53.76,43.33"
           stroke="#1e1e1e"
           stroke-width="4"
           fill="none"
           id="path15007" /></g><g
         transform="translate(595.07779,397.92246)"
         id="g15013"><path
           d="m 116.41,85.28 c 7.16,1.94 9.68,3.01 23.29,9.09 m -23.29,-9.09 c 9.42,2.61 17.07,5.88 23.29,9.09"
           stroke="#1e1e1e"
           stroke-width="4"
           fill="none"
           id="path15011" /></g><g
         transform="translate(595.07779,397.92246)"
         id="g15017"><path
           d="m 127.7,72.44 c 4.46,4.98 4.34,9.05 12,21.93 m -12,-21.93 c 5.44,7.22 9.03,15.1 12,21.93"
           stroke="#1e1e1e"
           stroke-width="4"
           fill="none"
           id="path15015" /></g></g><g
       stroke-linecap="round"
       id="g15035"
       transform="matrix(0.26458385,0,0,0.26458385,265.0419,28.882756)"><g
         transform="translate(478.07779,558.82368)"
         id="g15025"><path
           d="m 0.98,-0.3 c 20.31,5.28 80.94,24.83 121.92,31.03 40.98,6.21 103.05,5.35 123.96,6.2 M 0.04,-1.5 c 20.58,5.49 83.47,27.17 125,33.27 41.53,6.11 103.55,2.5 124.19,3.35"
           stroke="#1e1e1e"
           stroke-width="4"
           fill="none"
           id="path15023" /></g><g
         transform="translate(478.07779,558.82368)"
         id="g15029"><path
           d="m 225.76,43.72 c 8.65,-5.33 16.67,-8.5 23.47,-8.6 m -23.47,8.6 c 9.9,-3.26 17.88,-7.27 23.47,-8.6"
           stroke="#1e1e1e"
           stroke-width="4"
           fill="none"
           id="path15027" /></g><g
         transform="translate(478.07779,558.82368)"
         id="g15033"><path
           d="m 225.72,26.62 c 8.53,1.29 16.56,4.73 23.51,8.5 m -23.51,-8.5 c 10,3.33 17.98,5.9 23.51,8.5"
           stroke="#1e1e1e"
           stroke-width="4"
           fill="none"
           id="path15031" /></g></g></g><style
     type="text/css"
     id="style1">
	.st0{fill:#36A85D;}
	.st1{fill:#E6B35A;}
	.st2{fill:#FFFFFF;}
	.st3{fill:#C3E5CF;}
	.st4{fill:#22834A;}
	.st5{opacity:0.25;fill:url(#SVGID_1_);enable-background:new    ;}
</style></svg>
